<?xml version="1.0" standalone="no"?>
<!DOCTYPE svg PUBLIC "-//W3C//DTD SVG 20010904//EN"
 "http://www.w3.org/TR/2001/REC-SVG-20010904/DTD/svg10.dtd">
<svg version="1.0" xmlns="http://www.w3.org/2000/svg"
 width="1024.000000pt" height="1010.000000pt" viewBox="0 0 1024.000000 1010.000000"
 preserveAspectRatio="xMidYMid meet">

<g transform="translate(0.000000,1010.000000) scale(0.100000,-0.100000)"
fill="#000000" stroke="none">
<path d="M156 9818 c-9 -24 -27 -74 -41 -112 -14 -37 -25 -70 -25 -72 0 -2 11
-4 24 -4 17 0 26 7 30 25 6 22 12 25 51 25 39 0 45 -3 51 -25 4 -18 13 -25 30
-25 13 0 24 3 24 8 0 4 -17 55 -37 114 -36 101 -40 108 -65 108 -22 0 -29 -7
-42 -42z m47 -96 c-33 -5 -34 -2 -21 42 l12 39 17 -39 c16 -39 16 -39 -8 -42z"/>
<path d="M330 9746 l0 -116 25 0 c23 0 24 3 27 76 l3 77 44 -77 c35 -61 48
-76 67 -76 24 0 24 0 24 115 l0 115 -25 0 c-23 0 -24 -3 -27 -72 l-3 -73 -40
70 c-33 57 -45 71 -68 73 l-27 3 0 -115z"/>
<path d="M560 9745 l0 -117 76 4 c66 3 78 7 94 28 36 47 36 122 0 170 -16 22
-28 25 -94 28 l-76 4 0 -117z m134 53 c38 -54 9 -128 -50 -128 l-34 0 0 75 0
75 34 0 c25 0 39 -7 50 -22z"/>
<path d="M824 9826 c-29 -29 -34 -41 -34 -81 0 -114 142 -158 200 -63 50 83
-4 178 -102 178 -21 0 -40 -10 -64 -34z m116 -26 c43 -43 13 -130 -43 -130
-57 0 -84 94 -38 131 30 24 56 24 81 -1z"/>
<path d="M1040 9746 l0 -116 25 0 c23 0 24 3 27 76 l3 77 44 -77 c35 -61 48
-76 67 -76 24 0 24 0 24 115 l0 115 -25 0 c-23 0 -24 -3 -27 -72 l-3 -73 -40
70 c-33 57 -45 71 -68 73 l-27 3 0 -115z"/>
<path d="M1324 9844 c-37 -18 -54 -51 -54 -105 0 -33 7 -48 34 -75 38 -38 70
-43 116 -19 17 9 30 11 30 5 0 -5 7 -10 15 -10 12 0 15 13 15 60 l0 60 -45 0
c-38 0 -45 -3 -45 -20 0 -15 7 -20 26 -20 32 0 28 -19 -9 -40 -24 -13 -30 -13
-54 0 -51 29 -49 108 3 132 22 10 31 9 56 -5 32 -18 68 -23 68 -8 0 5 -14 21
-31 35 -35 30 -78 33 -125 10z"/>
<path d="M1715 9835 c-48 -47 -24 -87 63 -106 46 -9 53 -14 50 -32 -2 -17 -11
-23 -41 -25 -26 -2 -39 1 -43 12 -7 19 -54 21 -54 3 0 -30 41 -52 97 -52 45 0
58 4 74 24 23 28 25 64 4 81 -9 7 -39 18 -68 25 -41 9 -52 16 -52 31 0 25 62
34 71 10 8 -20 54 -21 54 -2 0 26 -50 56 -92 56 -28 0 -46 -7 -63 -25z"/>
<path d="M1944 9826 c-29 -29 -34 -41 -34 -81 0 -114 142 -158 200 -63 50 83
-4 178 -102 178 -21 0 -40 -10 -64 -34z m116 -26 c43 -43 13 -130 -43 -130
-57 0 -84 94 -38 131 30 24 56 24 81 -1z"/>
<path d="M2250 9778 c0 -46 -4 -89 -9 -97 -12 -19 -41 -6 -41 19 0 15 -7 20
-25 20 -21 0 -25 -5 -25 -29 0 -55 74 -80 121 -42 22 17 24 29 27 115 l4 96
-26 0 c-26 0 -26 0 -26 -82z"/>
<path d="M2340 9783 c0 -100 6 -121 41 -138 45 -24 87 -19 120 14 28 28 29 34
29 115 0 85 0 86 -25 86 -25 0 -25 -1 -25 -83 0 -87 -8 -107 -45 -107 -37 0
-45 20 -45 107 0 82 0 83 -25 83 -25 0 -25 -1 -25 -77z"/>
<path d="M2750 9745 l0 -115 73 0 c64 0 76 3 95 23 26 28 28 54 5 79 -13 14
-14 21 -5 30 7 7 12 24 12 39 0 42 -32 59 -112 59 l-68 0 0 -115z m135 50 c0
-16 -8 -21 -42 -23 -40 -3 -43 -2 -43 23 0 25 3 26 43 23 34 -2 42 -7 42 -23z
m0 -95 c0 -22 -5 -25 -42 -28 -42 -3 -43 -2 -43 28 0 30 1 31 43 28 37 -3 42
-6 42 -28z"/>
<path d="M3192 9848 c-7 -7 -12 -20 -12 -30 0 -10 -4 -18 -10 -18 -5 0 -10 -7
-10 -15 0 -8 5 -15 10 -15 6 0 10 -30 10 -70 0 -68 1 -70 25 -70 24 0 25 2 25
70 0 40 4 70 10 70 6 0 10 7 10 15 0 8 -4 15 -10 15 -5 0 -10 7 -10 15 0 8 5
15 10 15 6 0 10 7 10 15 0 18 -41 20 -58 3z"/>
<path d="M3302 9848 c-7 -7 -12 -20 -12 -30 0 -10 -7 -18 -15 -18 -8 0 -15 -7
-15 -15 0 -8 7 -15 15 -15 12 0 15 -14 15 -70 0 -63 2 -70 20 -70 18 0 20 7
20 70 0 56 3 70 15 70 8 0 15 7 15 15 0 8 -7 15 -15 15 -8 0 -15 5 -15 10 0 6
7 13 15 16 8 4 15 12 15 20 0 17 -41 19 -58 2z"/>
<path d="M3980 9820 c0 -37 -2 -40 -19 -30 -30 16 -50 12 -76 -15 -18 -18 -25
-35 -25 -65 0 -64 48 -98 101 -70 13 7 19 7 19 0 0 -5 9 -10 20 -10 19 0 20 7
20 115 0 108 -1 115 -20 115 -17 0 -20 -7 -20 -40z m-9 -81 c16 -31 -4 -71
-33 -67 -31 5 -44 31 -30 62 14 32 47 34 63 5z"/>
<path d="M4260 9818 c0 -33 -3 -39 -12 -30 -37 37 -108 -12 -108 -73 0 -61 71
-110 108 -73 9 9 12 9 12 0 0 -7 9 -12 20 -12 19 0 20 7 20 115 0 108 -1 115
-20 115 -17 0 -20 -7 -20 -42z m-12 -70 c16 -16 15 -53 -3 -68 -33 -28 -71 12
-54 58 9 24 38 29 57 10z"/>
<path d="M4700 9840 c0 -15 7 -20 25 -20 18 0 25 5 25 20 0 15 -7 20 -25 20
-18 0 -25 -5 -25 -20z"/>
<path d="M5168 9818 c-16 -32 -22 -60 -22 -108 0 -71 31 -150 59 -150 18 0 19
-5 -5 58 -11 29 -20 70 -20 92 0 22 9 63 20 92 24 63 23 58 5 58 -8 0 -25 -19
-37 -42z"/>
<path d="M5260 9745 c0 -108 1 -115 20 -115 17 0 20 7 20 50 l0 50 55 0 c48 0
55 2 55 20 0 18 -7 20 -55 20 -52 0 -55 1 -55 25 0 24 3 25 60 25 53 0 60 2
60 20 0 18 -7 20 -80 20 l-80 0 0 -115z"/>
<path d="M5450 9745 l0 -115 25 0 25 0 0 115 0 115 -25 0 -25 0 0 -115z"/>
<path d="M5540 9745 l0 -115 25 0 c23 0 25 3 25 50 l0 50 50 0 c43 0 50 3 50
20 0 17 -7 20 -50 20 -47 0 -50 2 -50 25 0 24 3 25 55 25 48 0 55 2 55 20 0
18 -7 20 -80 20 l-80 0 0 -115z"/>
<path d="M5764 9826 c-29 -29 -34 -41 -34 -81 0 -114 142 -158 200 -63 50 83
-4 178 -102 178 -21 0 -40 -10 -64 -34z m116 -26 c43 -43 13 -130 -43 -130
-57 0 -84 94 -38 131 30 24 56 24 81 -1z"/>
<path d="M5990 9815 c25 -59 26 -140 1 -205 -17 -45 -18 -51 -4 -48 29 5 63
86 63 147 0 64 -33 144 -62 149 -17 3 -16 0 2 -43z"/>
<path d="M2982 9723 c3 -75 4 -78 31 -87 20 -8 34 -7 50 3 15 10 22 10 25 2 2
-6 12 -11 23 -11 17 0 19 8 19 85 0 78 -2 85 -20 85 -16 0 -19 -8 -22 -56 -3
-60 -20 -83 -52 -71 -12 5 -16 20 -16 67 0 54 -2 60 -20 60 -19 0 -21 -5 -18
-77z"/>
<path d="M3408 9780 c-32 -24 -40 -65 -23 -107 21 -49 89 -57 131 -15 17 16
17 17 -4 20 -12 2 -29 -1 -39 -6 -11 -7 -24 -7 -35 -1 -34 18 -18 29 40 29
l59 0 -5 30 c-5 35 -44 70 -77 70 -12 0 -34 -9 -47 -20z m76 -36 c4 -10 -3
-14 -29 -14 -37 0 -46 13 -18 28 20 12 39 6 47 -14z"/>
<path d="M3570 9715 c0 -78 2 -85 20 -85 16 0 19 8 22 58 3 50 6 57 26 60 16
3 22 10 22 28 0 28 -12 31 -34 8 -15 -14 -16 -14 -16 0 0 9 -8 16 -20 16 -18
0 -20 -7 -20 -85z"/>
<path d="M3708 9780 c-32 -24 -40 -65 -23 -107 21 -49 89 -57 131 -15 17 16
17 17 -4 20 -12 2 -29 -1 -39 -6 -11 -7 -24 -7 -35 -1 -34 18 -18 29 40 29
l59 0 -5 30 c-5 35 -44 70 -77 70 -12 0 -34 -9 -47 -20z m76 -36 c4 -10 -3
-14 -29 -14 -37 0 -46 13 -18 28 20 12 39 6 47 -14z"/>
<path d="M4372 9793 c-23 -9 -44 -64 -37 -99 11 -63 81 -84 132 -39 l28 24
-25 1 c-14 0 -32 -4 -39 -9 -9 -6 -22 -6 -33 0 -33 18 -19 29 37 29 52 0 55 1
55 25 0 51 -66 89 -118 68z m72 -48 c4 -12 -3 -15 -29 -15 -33 0 -43 8 -28 23
12 13 51 7 57 -8z"/>
<path d="M4510 9798 c0 -2 13 -39 29 -83 25 -69 32 -80 54 -83 23 -3 27 3 51
75 31 95 32 95 4 91 -18 -2 -25 -14 -37 -63 l-15 -60 -20 63 c-17 52 -23 62
-43 62 -13 0 -23 -1 -23 -2z"/>
<path d="M4700 9715 c0 -84 0 -85 25 -85 25 0 25 1 25 85 0 84 0 85 -25 85
-25 0 -25 -1 -25 -85z"/>
<path d="M4810 9782 c-13 -10 -23 -33 -27 -59 -5 -35 -2 -45 20 -67 30 -30 71
-34 105 -10 42 29 18 60 -27 32 -30 -18 -51 -3 -51 37 0 40 21 55 51 37 45
-28 69 3 27 32 -30 21 -71 20 -98 -2z"/>
<path d="M4988 9780 c-32 -24 -40 -65 -23 -107 21 -49 89 -57 131 -15 17 16
17 17 -4 20 -12 2 -29 -1 -39 -6 -11 -7 -24 -7 -35 -1 -34 18 -18 29 40 29
l59 0 -5 30 c-5 35 -44 70 -77 70 -12 0 -34 -9 -47 -20z m76 -36 c4 -10 -3
-14 -29 -14 -37 0 -46 13 -18 28 20 12 39 6 47 -14z"/>
<path d="M2570 9655 c0 -16 6 -25 15 -25 19 0 19 -9 -2 -32 -15 -16 -15 -18 0
-18 21 0 37 30 37 69 0 26 -4 31 -25 31 -20 0 -25 -5 -25 -25z"/>
<path d="M1490 9580 c0 -6 38 -10 95 -10 57 0 95 4 95 10 0 6 -38 10 -95 10
-57 0 -95 -4 -95 -10z"/>
<path d="M80 8650 c0 -5 9 -10 20 -10 17 0 20 -7 20 -50 0 -27 5 -50 10 -50 6
0 10 23 10 50 0 43 3 50 20 50 11 0 20 5 20 10 0 6 -22 10 -50 10 -27 0 -50
-4 -50 -10z"/>
<path d="M190 8600 c0 -62 16 -84 22 -28 4 46 28 49 28 4 0 -20 5 -36 11 -36
6 0 9 17 7 43 -3 36 -6 42 -25 41 -16 0 -23 5 -23 18 0 10 -4 18 -10 18 -6 0
-10 -27 -10 -60z"/>
<path d="M470 8600 c0 -33 4 -60 10 -60 6 0 10 7 10 15 0 20 10 19 26 -2 18
-25 27 -11 13 20 -9 21 -9 30 1 42 17 20 1 19 -22 -2 -17 -15 -18 -14 -18 15
0 18 -4 32 -10 32 -6 0 -10 -27 -10 -60z"/>
<path d="M289 8614 c-13 -16 -12 -17 14 -10 34 8 35 -1 1 -14 -38 -15 -28 -44
17 -47 l35 -2 -5 42 c-5 33 -11 43 -27 45 -11 2 -27 -5 -35 -14z m41 -44 c0
-5 -7 -10 -16 -10 -8 0 -12 5 -9 10 3 6 10 10 16 10 5 0 9 -4 9 -10z"/>
<path d="M370 8584 c0 -24 5 -44 10 -44 6 0 10 10 10 23 0 29 15 51 29 43 6
-4 11 -20 11 -37 0 -16 5 -29 11 -29 6 0 9 17 7 43 -3 41 -4 42 -40 44 l-38 1
0 -44z"/>
<path d="M600 8622 c0 -5 7 -26 15 -47 13 -29 13 -40 4 -51 -16 -19 -2 -32 15
-13 15 16 48 110 42 117 -9 9 -26 -10 -26 -29 0 -26 -18 -24 -22 3 -3 21 -28
39 -28 20z"/>
<path d="M700 8616 c-28 -35 11 -93 48 -70 35 22 22 84 -18 84 -10 0 -23 -7
-30 -14z m47 -22 c8 -21 -13 -42 -28 -27 -13 13 -5 43 11 43 6 0 13 -7 17 -16z"/>
<path d="M792 8588 c3 -42 4 -43 41 -45 l37 -2 0 44 c0 33 -4 45 -15 45 -11 0
-15 -11 -15 -36 0 -45 -24 -42 -28 4 -5 48 -24 38 -20 -10z"/>
<path d="M981 8617 c-29 -29 -1 -84 35 -70 16 6 17 5 6 -9 -7 -9 -22 -14 -35
-11 -20 4 -20 3 -4 -7 9 -6 26 -8 37 -5 17 5 20 15 20 58 0 48 -2 52 -24 53
-13 1 -29 -3 -35 -9z m42 -19 c6 -19 -3 -38 -19 -38 -8 0 -14 10 -14 25 0 26
25 35 33 13z"/>
<path d="M1072 8588 c3 -41 5 -43 36 -45 32 -1 32 -1 32 43 0 24 -4 44 -10 44
-5 0 -10 -16 -10 -35 0 -24 -5 -35 -15 -35 -10 0 -15 11 -15 35 0 19 -5 35
-11 35 -6 0 -9 -17 -7 -42z"/>
<path d="M1160 8627 c0 -2 7 -25 16 -51 14 -41 14 -50 3 -57 -11 -7 -11 -9 3
-9 11 0 22 19 36 60 12 33 17 60 12 60 -5 0 -12 -11 -16 -25 -3 -14 -10 -25
-14 -25 -4 0 -11 11 -14 25 -4 14 -11 25 -16 25 -6 0 -10 -1 -10 -3z"/>
<path d="M1260 8615 c-13 -16 -6 -35 15 -35 8 0 17 -5 21 -11 5 -9 -1 -10 -20
-5 -15 4 -26 2 -26 -4 0 -12 45 -24 59 -15 19 11 12 34 -16 50 l-28 16 28 -6
c29 -6 38 9 11 19 -23 9 -30 8 -44 -9z"/>
<path d="M893 8535 c0 -13 3 -22 8 -19 5 3 9 14 9 25 0 10 -4 19 -9 19 -5 0
-8 -11 -8 -25z"/>
<path d="M1340 8550 c0 -5 7 -10 15 -10 8 0 15 5 15 10 0 6 -7 10 -15 10 -8 0
-15 -4 -15 -10z"/>
<path d="M101 8246 c-19 -22 -7 -43 28 -51 17 -4 31 -13 31 -21 0 -23 -29 -28
-50 -9 -21 19 -28 7 -8 -13 25 -25 78 -8 78 26 0 7 -16 20 -35 28 -38 15 -45
31 -19 41 11 4 22 -1 31 -13 14 -19 15 -19 11 1 -4 25 -50 32 -67 11z"/>
<path d="M530 8255 c0 -3 7 -17 16 -31 9 -13 20 -39 24 -57 6 -24 8 -26 9 -9
1 12 12 40 26 62 29 46 22 54 -11 13 l-22 -28 -13 28 c-11 23 -29 37 -29 22z"/>
<path d="M1280 8241 c0 -14 -5 -18 -18 -14 -28 7 -47 -23 -36 -55 7 -21 16
-27 42 -29 l32 -1 0 59 c0 33 -4 59 -10 59 -5 0 -10 -9 -10 -19z m-5 -57 c0
-19 -5 -29 -15 -29 -16 0 -25 28 -16 51 10 25 31 10 31 -22z"/>
<path d="M1362 8200 c0 -49 2 -58 7 -34 16 65 41 74 41 14 0 -22 5 -40 11 -40
6 0 9 17 7 43 -3 37 -6 42 -28 42 -16 0 -27 7 -32 20 -3 11 -6 -9 -6 -45z"/>
<path d="M2431 8205 c-1 -60 -1 -61 27 -59 15 1 30 2 35 3 4 0 7 16 7 35 0 35
-17 50 -44 40 -9 -4 -16 3 -19 18 -2 13 -5 -4 -6 -37z m54 -21 c0 -32 -21 -39
-38 -12 -8 12 -7 21 3 32 19 24 35 14 35 -20z"/>
<path d="M1092 8234 c-7 -8 -8 -14 -2 -14 5 0 10 -18 10 -40 0 -22 3 -40 8
-40 7 0 8 98 0 105 -1 2 -9 -3 -16 -11z"/>
<path d="M2348 8240 c-5 -16 3 -100 11 -100 3 0 5 23 4 51 -1 50 -7 71 -15 49z"/>
<path d="M203 8185 c0 -27 2 -38 4 -22 2 15 2 37 0 50 -2 12 -4 0 -4 -28z"/>
<path d="M231 8181 c1 -42 2 -43 8 -15 16 65 41 74 41 14 0 -22 5 -40 11 -40
6 0 9 17 7 43 -3 40 -5 42 -35 43 -33 1 -33 1 -32 -45z"/>
<path d="M324 8217 c-3 -9 -4 -28 -2 -44 2 -22 8 -28 27 -28 13 0 27 7 29 15
4 13 3 13 -11 2 -21 -18 -37 -7 -37 23 0 30 16 41 37 23 14 -11 16 -11 11 2
-6 20 -47 25 -54 7z"/>
<path d="M412 8218 c-20 -20 -15 -66 8 -73 20 -6 56 12 45 23 -2 3 -11 -1 -19
-7 -8 -7 -20 -10 -26 -6 -20 12 -10 25 20 25 18 0 30 5 30 13 0 16 -20 37 -35
37 -6 0 -16 -5 -23 -12z m29 -26 c-28 -4 -40 6 -21 18 9 6 20 4 29 -3 12 -10
11 -13 -8 -15z"/>
<path d="M653 8223 c-7 -2 -13 -20 -13 -38 0 -25 5 -35 20 -40 26 -8 50 11 50
39 0 36 -25 53 -57 39z m41 -26 c8 -12 7 -21 -6 -33 -20 -20 -38 -11 -38 20 0
39 23 46 44 13z"/>
<path d="M734 8190 c1 -43 2 -45 34 -48 32 -3 32 -3 32 42 0 55 -17 62 -22 9
-4 -53 -31 -51 -39 2 l-7 40 2 -45z"/>
<path d="M861 8226 c-2 -17 22 -86 30 -86 4 0 14 20 22 45 9 25 12 45 8 45 -5
0 -13 -15 -18 -32 l-10 -33 -16 35 c-8 19 -16 31 -16 26z"/>
<path d="M940 8185 c0 -25 5 -45 10 -45 6 0 10 20 10 45 0 25 -4 45 -10 45 -5
0 -10 -20 -10 -45z"/>
<path d="M987 8223 c-15 -14 -6 -34 20 -44 20 -7 23 -13 15 -21 -9 -9 -15 -9
-24 0 -18 18 -33 15 -18 -3 17 -20 54 -15 58 7 2 12 -6 21 -23 28 -15 6 -23
15 -20 21 4 6 13 8 21 5 8 -3 14 -1 14 4 0 11 -33 14 -43 3z"/>
<path d="M1063 8185 c0 -27 2 -38 4 -22 2 15 2 37 0 50 -2 12 -4 0 -4 -28z"/>
<path d="M1140 8204 c-19 -48 28 -87 60 -49 14 17 0 21 -17 4 -6 -6 -16 -8
-22 -5 -21 13 -11 26 19 26 31 0 39 17 18 38 -20 20 -48 14 -58 -14z m48 -2
c2 -7 -6 -12 -17 -12 -21 0 -27 11 -14 24 9 9 26 2 31 -12z"/>
<path d="M1450 8204 c-19 -48 28 -87 60 -49 14 17 0 21 -17 4 -6 -6 -16 -8
-22 -5 -21 13 -11 26 19 26 31 0 39 17 18 38 -20 20 -48 14 -58 -14z m48 -2
c2 -7 -6 -12 -17 -12 -21 0 -27 11 -14 24 9 9 26 2 31 -12z"/>
<path d="M1541 8180 c2 -34 3 -37 6 -15 3 17 12 38 20 47 14 15 13 17 -6 15
-18 -1 -21 -7 -20 -47z"/>
<path d="M1602 8218 c-20 -20 -15 -66 8 -73 20 -6 56 12 45 23 -2 3 -11 -1
-19 -7 -8 -7 -20 -10 -26 -6 -20 12 -10 25 20 25 18 0 30 5 30 13 0 16 -20 37
-35 37 -6 0 -16 -5 -23 -12z m29 -26 c-28 -4 -40 6 -21 18 9 6 20 4 29 -3 12
-10 11 -13 -8 -15z"/>
<path d="M1745 8210 c3 -14 8 -38 12 -54 4 -19 1 -31 -8 -37 -10 -6 -10 -9 -2
-9 13 0 40 56 48 99 3 18 1 16 -7 -6 -6 -18 -14 -33 -18 -33 -4 0 -12 15 -18
33 -7 17 -9 21 -7 7z"/>
<path d="M1830 8216 c-15 -19 -9 -56 12 -69 34 -22 66 41 36 71 -16 16 -33 15
-48 -2z m45 -15 c8 -26 -5 -53 -24 -49 -29 6 -27 68 3 68 8 0 17 -8 21 -19z"/>
<path d="M1914 8190 c1 -42 3 -45 29 -46 26 -1 27 1 26 45 l-2 46 -6 -40 c-4
-26 -11 -40 -21 -40 -10 0 -17 14 -21 40 l-7 40 2 -45z"/>
<path d="M2041 8181 l2 -46 6 40 c4 27 12 41 24 43 14 3 17 -4 18 -40 l2 -43
6 40 c4 26 11 40 21 40 10 0 17 -14 21 -40 l7 -40 -2 45 -1 45 -52 1 -53 1 1
-46z"/>
<path d="M2184 8188 c1 -40 3 -43 29 -44 26 -1 27 1 26 45 l-2 46 -6 -40 c-9
-57 -38 -61 -44 -6 l-4 41 1 -42z"/>
<path d="M2273 8223 c-22 -8 -14 -32 12 -39 14 -3 25 -12 25 -20 0 -17 -22
-18 -39 -1 -11 10 -13 9 -9 -3 7 -21 52 -19 56 2 2 12 -6 21 -23 28 -30 11
-24 34 7 24 14 -4 18 -2 14 5 -7 11 -22 13 -43 4z"/>
<path d="M2530 8216 c-15 -20 -9 -56 12 -70 14 -8 21 -6 35 9 16 17 17 18 1 6
-19 -14 -48 -9 -48 9 0 5 14 10 30 10 31 0 39 17 18 38 -16 16 -33 15 -48 -2z
m48 -13 c2 -8 -6 -13 -22 -13 -25 0 -33 10 -19 24 10 10 36 3 41 -11z"/>
<path d="M1686 8152 c-2 -4 -1 -14 5 -22 7 -12 9 -10 9 8 0 23 -5 28 -14 14z"/>
<path d="M100 6615 c0 -108 1 -115 20 -115 19 0 20 7 20 115 0 108 -1 115 -20
115 -19 0 -20 -7 -20 -115z"/>
<path d="M1422 6656 c3 -68 11 -97 22 -85 3 2 8 39 12 82 7 75 6 77 -16 77
-21 0 -22 -3 -18 -74z"/>
<path d="M224 6658 c-22 -10 -44 -47 -44 -73 0 -27 22 -63 47 -74 39 -18 63
-13 95 19 25 26 29 36 24 63 -11 60 -69 91 -122 65z m77 -50 c23 -43 -21 -89
-59 -62 -28 19 -28 59 -1 78 25 17 45 12 60 -16z"/>
<path d="M370 6668 c0 -2 13 -39 29 -83 24 -67 32 -80 51 -80 18 0 26 11 45
60 40 107 40 107 14 103 -19 -2 -26 -13 -37 -61 -8 -32 -17 -55 -21 -52 -3 3
-13 30 -21 58 -12 40 -21 53 -38 55 -12 2 -22 2 -22 0z"/>
<path d="M593 6660 c-60 -25 -57 -127 4 -151 31 -11 88 4 97 26 7 18 -14 19
-48 4 -20 -9 -29 -9 -41 1 -27 22 -16 30 43 30 l59 0 -5 29 c-7 50 -62 81
-109 61z m55 -32 c20 -20 14 -28 -23 -28 -19 0 -35 4 -35 8 0 12 22 32 35 32
6 0 16 -5 23 -12z"/>
<path d="M846 6578 l35 -93 -21 -17 c-23 -18 -26 -38 -7 -38 30 0 50 31 86
133 38 105 38 107 16 107 -18 0 -24 -9 -35 -55 -7 -31 -16 -58 -20 -60 -4 -2
-15 23 -25 55 -15 50 -22 60 -41 60 -22 0 -22 0 12 -92z"/>
<path d="M1043 6660 c-45 -18 -58 -90 -24 -131 24 -30 89 -33 120 -5 27 25 29
96 3 119 -23 21 -70 29 -99 17z m77 -75 c0 -37 -25 -60 -54 -49 -33 13 -32 89
2 97 32 7 52 -12 52 -48z"/>
<path d="M1200 6600 c0 -63 2 -71 25 -86 22 -14 30 -15 53 -5 18 9 28 9 30 2
2 -6 12 -11 23 -11 17 0 19 8 19 85 0 78 -2 85 -20 85 -16 0 -19 -8 -22 -62
-3 -63 -3 -63 -33 -63 -30 0 -30 0 -33 63 -3 54 -6 62 -22 62 -18 0 -20 -7
-20 -70z"/>
<path d="M1420 6520 c0 -13 7 -20 20 -20 13 0 20 7 20 20 0 13 -7 20 -20 20
-13 0 -20 -7 -20 -20z"/>
<path d="M100 5850 c0 -73 3 -90 15 -90 11 0 15 11 15 40 0 39 1 40 35 40 34
0 35 -1 35 -40 0 -33 3 -40 20 -40 19 0 20 7 20 90 0 83 -1 90 -20 90 -16 0
-20 -7 -20 -35 0 -33 -2 -35 -35 -35 -33 0 -35 2 -35 35 0 24 -5 35 -15 35
-12 0 -15 -17 -15 -90z"/>
<path d="M293 5916 c-22 -19 -28 -32 -28 -66 0 -102 136 -124 161 -25 22 88
-66 148 -133 91z m78 -16 c14 -8 19 -21 19 -50 0 -38 -18 -60 -49 -60 -36 0
-55 75 -25 104 18 19 28 20 55 6z"/>
<path d="M444 5923 c4 -9 14 -44 22 -78 9 -34 19 -67 24 -75 16 -26 38 -2 45
49 9 67 22 72 30 13 13 -100 42 -96 69 9 11 41 21 80 24 87 2 7 -4 12 -16 12
-16 0 -22 -11 -32 -62 l-13 -63 -15 63 c-10 48 -18 62 -32 62 -13 0 -20 -14
-30 -62 l-13 -63 -15 63 c-11 51 -17 62 -34 62 -15 0 -18 -5 -14 -17z"/>
<path d="M740 5925 c0 -9 9 -15 25 -15 24 0 25 -2 25 -75 0 -60 3 -75 15 -75
12 0 15 15 15 75 l0 75 30 0 c20 0 30 5 30 15 0 12 -14 15 -70 15 -56 0 -70
-3 -70 -15z"/>
<path d="M915 5915 c-19 -18 -25 -35 -25 -65 0 -97 118 -125 155 -38 37 89
-65 169 -130 103z m87 -22 c22 -20 23 -61 1 -85 -33 -36 -76 -13 -76 42 0 54
38 76 75 43z"/>
<path d="M1208 5868 c-2 -48 -7 -73 -16 -76 -7 -2 -16 5 -19 17 -8 29 -33 27
-33 -4 0 -26 25 -45 59 -45 34 0 51 38 51 112 0 61 -2 68 -20 68 -17 0 -19 -8
-22 -72z"/>
<path d="M1303 5916 c-22 -19 -28 -32 -28 -66 0 -102 136 -124 161 -25 14 56
-26 115 -77 115 -15 0 -40 -11 -56 -24z m78 -16 c22 -12 27 -78 7 -98 -30 -30
-78 0 -78 48 0 28 22 60 41 60 6 0 19 -5 30 -10z"/>
<path d="M1470 5850 c0 -73 3 -90 15 -90 12 0 15 17 15 90 0 73 -3 90 -15 90
-12 0 -15 -17 -15 -90z"/>
<path d="M1530 5850 c0 -83 2 -90 20 -90 16 0 19 8 22 58 l3 57 30 -57 c19
-37 36 -58 48 -58 15 0 17 11 17 90 0 72 -3 90 -15 90 -10 0 -15 -15 -17 -57
l-3 -58 -33 58 c-23 38 -40 57 -53 57 -17 0 -19 -8 -19 -90z"/>
<path d="M1780 5866 c0 -66 3 -77 22 -90 28 -20 68 -20 93 -2 16 11 20 30 23
90 4 72 3 76 -17 76 -19 0 -21 -5 -21 -70 0 -56 -3 -72 -16 -77 -34 -13 -49
11 -52 81 -2 50 -6 66 -17 66 -12 0 -15 -16 -15 -74z"/>
<path d="M1968 5928 c-41 -34 -26 -70 37 -90 23 -8 40 -19 40 -28 0 -21 -49
-25 -65 -6 -14 18 -40 21 -40 6 0 -20 41 -50 68 -50 38 0 72 26 72 55 0 27
-10 36 -60 50 -19 6 -35 17 -35 25 0 22 34 24 56 4 29 -26 48 -3 20 25 -23 23
-69 28 -93 9z"/>
<path d="M2132 5924 c-23 -16 -30 -44 -11 -44 7 0 17 7 24 17 14 19 45 11 45
-12 0 -8 -9 -24 -20 -35 -21 -21 -26 -40 -11 -40 15 0 59 43 62 60 5 27 -11
58 -34 64 -30 8 -30 8 -55 -10z"/>
<path d="M2150 5775 c0 -8 7 -15 15 -15 8 0 15 7 15 15 0 8 -7 15 -15 15 -8 0
-15 -7 -15 -15z"/>
<path d="M240 5468 c1 -2 9 -32 19 -68 24 -85 46 -92 57 -18 l8 53 14 -52 c8
-29 20 -53 27 -53 7 0 20 29 29 65 19 78 19 75 2 75 -9 0 -16 -17 -21 -47 -8
-50 -16 -45 -29 20 -10 44 -34 33 -42 -20 -7 -50 -15 -45 -28 20 -4 15 -13 27
-21 27 -8 0 -15 -1 -15 -2z"/>
<path d="M652 5453 c-14 -27 0 -117 18 -121 14 -2 17 33 11 126 -1 18 -19 15
-29 -5z"/>
<path d="M772 5454 c-14 -28 0 -118 18 -122 12 -2 15 9 14 58 -2 67 -16 95
-32 64z"/>
<path d="M1000 5460 c0 -5 5 -10 10 -10 6 0 10 5 10 10 0 6 -4 10 -10 10 -5 0
-10 -4 -10 -10z"/>
<path d="M1170 5460 c0 -5 5 -10 10 -10 6 0 10 5 10 10 0 6 -4 10 -10 10 -5 0
-10 -4 -10 -10z"/>
<path d="M1347 5463 c-10 -10 -8 -43 2 -43 5 0 11 7 15 15 3 8 10 15 16 15 20
0 23 -31 5 -50 -28 -31 -8 -37 22 -7 23 23 25 29 15 52 -8 18 -19 25 -40 25
-16 0 -32 -3 -35 -7z"/>
<path d="M443 5433 c-15 -5 -18 -33 -4 -33 6 0 13 5 16 10 8 13 25 13 25 0 0
-5 -11 -12 -24 -16 -28 -7 -41 -31 -26 -49 6 -7 27 -12 48 -12 l37 0 -4 46
c-4 56 -24 72 -68 54z m37 -68 c0 -8 -4 -15 -9 -15 -13 0 -22 16 -14 24 11 11
23 6 23 -9z"/>
<path d="M530 5384 c0 -40 4 -54 14 -54 10 0 16 14 18 43 2 29 8 42 18 42 10
0 16 -13 18 -42 4 -55 32 -61 32 -7 0 56 -14 73 -60 72 l-40 0 0 -54z"/>
<path d="M840 5425 c-29 -35 -7 -95 35 -95 28 0 48 22 48 55 0 33 -20 55 -48
55 -12 0 -28 -7 -35 -15z m50 -20 c14 -17 4 -55 -15 -55 -17 0 -27 27 -20 51
8 23 18 24 35 4z"/>
<path d="M1000 5381 c0 -33 -3 -66 -6 -75 -4 -11 -1 -16 10 -16 13 0 16 13 16
75 0 43 -4 75 -10 75 -6 0 -10 -26 -10 -59z"/>
<path d="M1060 5425 c-29 -35 -7 -95 35 -95 28 0 48 22 48 55 0 33 -20 55 -48
55 -12 0 -28 -7 -35 -15z m50 -20 c14 -17 4 -55 -15 -55 -17 0 -27 27 -20 51
8 23 18 24 35 4z"/>
<path d="M1170 5385 c0 -30 5 -55 10 -55 6 0 10 25 10 55 0 30 -4 55 -10 55
-5 0 -10 -25 -10 -55z"/>
<path d="M1220 5384 c0 -40 4 -54 14 -54 10 0 16 13 18 42 4 59 28 63 28 4 0
-35 4 -46 16 -46 12 0 14 10 12 53 l-3 52 -42 2 -43 2 0 -55z"/>
<path d="M90 5345 c0 -8 7 -15 15 -15 8 0 15 7 15 15 0 8 -7 15 -15 15 -8 0
-15 -7 -15 -15z"/>
<path d="M147 5353 c-12 -11 -8 -23 8 -23 8 0 15 7 15 15 0 16 -12 20 -23 8z"/>
<path d="M200 5346 c0 -9 7 -16 16 -16 17 0 14 22 -4 28 -7 2 -12 -3 -12 -12z"/>
<path d="M1370 5346 c0 -9 7 -16 16 -16 9 0 14 5 12 12 -6 18 -28 21 -28 4z"/>
<path d="M80 3665 l0 -1405 334 0 334 0 4 108 c3 102 5 111 31 143 15 19 53
72 83 118 31 47 71 105 90 129 38 50 41 62 19 62 -8 0 -15 5 -15 10 0 6 11 10
24 10 18 0 34 13 57 46 71 97 227 204 580 397 23 13 26 20 28 83 1 38 6 132
12 209 22 312 22 352 5 377 -9 12 -16 38 -15 58 0 29 2 31 9 14 5 -12 34 -31
76 -49 38 -15 72 -31 77 -35 4 -3 8 -24 10 -46 1 -21 5 -43 9 -49 5 -8 28
-117 28 -132 0 -2 5 -2 11 -1 6 2 14 -3 17 -11 3 -8 0 -11 -7 -7 -13 8 -15
-16 -2 -29 5 -6 19 -38 31 -72 13 -35 27 -63 33 -63 10 0 5 -49 -8 -82 -5 -12
-2 -18 6 -18 14 -1 50 -52 84 -119 20 -40 158 -176 238 -234 31 -23 74 -47 95
-53 20 -7 30 -12 22 -13 -18 -1 -121 34 -160 54 -14 7 -36 25 -49 39 -17 18
-35 26 -57 26 -42 0 -129 -34 -172 -66 -31 -24 -92 -117 -92 -141 0 -13 71
-11 105 2 24 10 65 52 65 66 0 13 98 59 126 59 12 0 27 -7 34 -15 17 -21 71
-45 95 -43 25 2 119 -21 162 -39 18 -7 48 -13 68 -13 31 0 35 -3 35 -25 0 -34
20 -32 50 5 29 35 40 38 33 10 -3 -11 -12 -20 -19 -20 -8 0 -14 -4 -14 -10 0
-5 13 -10 29 -10 16 0 31 -5 33 -10 2 -6 29 3 61 20 32 16 64 30 71 30 13 0
124 78 156 110 11 11 24 20 28 20 5 0 15 11 22 25 18 33 25 32 26 -6 1 -17 7
-34 12 -38 6 -4 43 -6 83 -6 53 1 74 5 83 17 14 20 8 98 -8 98 -6 0 -4 4 4 10
24 15 3 24 -64 28 -59 4 -65 2 -71 -18 -7 -21 -111 -77 -123 -66 -7 8 -10 74
-3 84 3 5 14 13 23 18 18 10 79 96 73 103 -3 2 -20 -10 -40 -28 -40 -35 -63
-40 -61 -13 1 15 -7 17 -64 15 -54 -2 -61 0 -42 9 12 6 22 15 22 20 0 12 -88
10 -95 -2 -3 -5 -22 -10 -42 -10 -20 0 -41 -7 -47 -15 -10 -13 -15 -12 -38 10
-20 18 -35 24 -54 21 -36 -7 -49 3 -27 20 16 12 16 15 3 24 -16 11 139 4 170
-7 49 -18 123 -8 78 10 -7 3 1 7 17 8 17 2 39 4 50 5 25 2 75 23 57 23 -20 1
-9 24 14 27 30 5 51 -5 57 -26 3 -11 13 -20 22 -20 9 0 13 5 10 10 -8 14 8 13
22 -1 10 -10 22 2 48 49 3 4 198 -49 275 -75 105 -36 153 -62 245 -131 68 -51
80 -57 83 -41 5 27 22 13 22 -17 0 -13 5 -24 10 -24 16 0 12 42 -7 62 -15 17
-15 18 0 18 10 0 17 -5 17 -10 0 -7 6 -8 16 -2 9 5 25 7 35 5 16 -5 19 1 19
31 0 35 -1 36 -40 36 -22 0 -40 4 -40 9 0 5 17 7 38 4 l37 -5 3 81 c2 51 -1
81 -8 81 -5 0 -10 7 -10 15 0 8 -7 15 -15 15 -8 0 -15 -4 -15 -10 0 -5 -5 -10
-10 -10 -6 0 -8 11 -4 25 3 14 2 25 -3 25 -6 0 -15 -11 -21 -25 -6 -14 -16
-25 -21 -25 -8 0 -20 32 -21 52 0 14 73 21 92 9 25 -16 38 -6 38 29 0 27 -2
28 -62 36 -35 4 -55 9 -45 12 20 4 23 22 4 22 -7 0 -22 7 -33 15 -19 14 -18
15 6 36 17 14 21 22 12 26 -30 12 4 22 58 16 l60 -6 0 190 c0 150 3 193 14
202 9 8 56 11 142 9 l129 -3 3 -188 2 -188 28 -12 c26 -11 79 -55 127 -104 12
-13 26 -23 31 -23 10 0 48 -43 82 -93 13 -20 29 -37 33 -37 5 0 9 -5 9 -10 0
-6 -14 -3 -31 6 -23 11 -34 13 -42 5 -14 -14 -70 -14 -84 0 -8 8 -13 8 -17 0
-4 -6 -21 -11 -39 -11 -29 0 -30 1 -11 14 24 18 13 31 -15 16 -19 -9 -21 -20
-21 -90 0 -44 4 -80 10 -82 12 -4 26 -80 36 -204 11 -131 11 -149 -3 -147 -8
2 -13 -8 -13 -27 0 -19 5 -30 14 -30 18 0 24 -24 32 -135 7 -98 16 -119 34
-85 7 13 8 25 3 29 -10 7 -12 23 -14 136 -1 44 -5 85 -9 90 -4 6 -7 17 -7 25
-1 56 -14 223 -19 231 -12 20 8 84 32 102 30 23 64 15 57 -13 -5 -17 -7 -17
-20 -5 -24 25 -33 17 -33 -27 0 -30 3 -39 9 -28 6 8 7 18 5 22 -3 4 0 8 5 8
10 0 16 -22 12 -43 -1 -5 4 -5 10 -2 6 4 9 16 6 26 -3 11 -2 19 3 19 9 0 20
-60 20 -112 0 -20 3 -43 6 -52 5 -14 8 -14 21 -1 8 8 28 15 44 15 l30 0 -3
-57 c-3 -55 -4 -58 -30 -59 -22 -1 -26 3 -25 25 1 18 -4 26 -17 29 -18 4 -19
-1 -13 -54 4 -33 10 -121 13 -196 l7 -138 -37 0 c-22 0 -35 4 -31 10 3 5 -7 2
-23 -7 -25 -14 -28 -20 -18 -35 10 -18 11 -18 14 2 2 11 10 20 18 20 8 0 14
-1 15 -2 0 -2 6 -45 13 -95 13 -95 13 -93 -21 -93 -9 0 -9 4 -11 78 -2 49 -4
53 -24 50 -16 -2 -24 4 -29 22 -7 25 -7 25 -8 2 -1 -22 -4 -23 -41 -17 -22 4
-40 4 -40 0 0 -3 38 -63 84 -133 46 -70 92 -144 103 -164 l18 -38 68 0 67 0 0
647 c0 355 3 643 7 639 4 -3 8 -99 9 -211 1 -112 5 -213 9 -224 3 -12 3 -21
-2 -21 -9 0 -8 -562 1 -585 3 -8 1 -15 -5 -15 -6 0 -9 -42 -7 -115 l3 -115
303 0 302 0 0 1405 0 1405 -2190 0 -2190 0 0 -80 c0 -47 -4 -80 -10 -80 -6 0
-10 33 -10 80 l0 80 -300 0 -300 0 0 -1405z m773 1288 c-2 -102 3 -153 16
-153 4 0 6 24 3 54 -2 29 1 62 7 72 8 14 10 -22 11 -145 0 -170 -7 -217 -11
-73 -2 60 -6 82 -16 82 -9 0 -13 -13 -11 -42 1 -24 -2 -120 -5 -215 -3 -95 -2
-175 2 -177 5 -3 6 -16 4 -30 -3 -13 0 -27 6 -30 7 -5 11 3 11 20 0 15 3 25 6
21 16 -16 -8 -868 -37 -1282 -24 -353 -38 -498 -48 -504 -5 -4 -14 -18 -20
-31 -7 -19 -10 -2 -11 75 -1 84 -1 1892 0 2323 l0 132 48 0 47 0 -2 -97z m154
75 c-3 -8 -6 -5 -6 6 -1 11 2 17 5 13 3 -3 4 -12 1 -19z m745 -24 c33 -25 67
-48 75 -51 8 -3 12 -12 9 -19 -3 -7 0 -16 6 -20 7 -4 8 -3 4 4 -4 7 -4 12 1
12 6 -1 165 -113 208 -147 6 -5 23 -16 39 -26 l28 -19 -27 -14 c-14 -7 -29
-13 -33 -13 -26 4 -41 -3 -36 -16 5 -12 0 -14 -27 -8 -19 3 -40 12 -47 20 -7
7 -22 13 -33 13 -11 0 -19 7 -20 18 0 15 -1 14 -8 -2 -7 -19 -8 -19 -13 2 -3
12 -18 26 -32 32 -29 11 -37 54 -11 64 8 3 15 10 15 16 0 6 -5 8 -10 5 -6 -4
-26 -1 -46 5 -30 10 -35 16 -32 35 3 15 1 22 -7 19 -7 -3 -15 2 -19 11 -3 9 0
18 8 21 31 12 24 30 -10 26 -26 -3 -34 0 -34 11 0 8 3 17 8 20 4 2 1 2 -7 0
-8 -2 -11 2 -7 12 7 19 -15 24 -119 28 -79 3 -79 3 18 5 l99 2 60 -46z m252
12 l40 -33 -55 -7 c-93 -13 -119 -7 -184 48 l-30 25 95 0 c93 1 96 0 134 -33z
m400 22 c5 -10 7 -10 12 0 4 9 48 12 167 12 151 0 163 -1 175 -20 13 -21 42
-28 42 -10 0 6 -4 10 -10 10 -5 0 -10 5 -10 10 0 6 15 10 34 10 29 0 36 -5 47
-32 l13 -33 3 33 c3 17 8 32 14 32 9 0 11 -13 13 -115 0 -33 5 -62 10 -65 5
-3 8 36 7 88 -2 75 0 92 13 92 8 0 17 -6 20 -12 5 -10 7 -10 12 0 4 8 33 12
94 12 l88 0 11 -44 c6 -24 17 -49 26 -56 17 -14 18 -11 6 22 -4 13 -11 35 -15
51 l-6 27 125 0 125 0 1 -192 c1 -106 4 -181 6 -165 2 15 8 27 13 27 5 0 7
-12 4 -27 -2 -16 -8 -64 -13 -108 -7 -66 -6 -85 7 -107 9 -16 22 -28 30 -28
10 0 10 5 -2 22 -16 22 -24 170 -9 154 4 -3 6 -28 4 -54 -2 -34 2 -52 13 -61
10 -8 16 -29 16 -53 0 -44 24 -63 46 -34 11 16 13 16 16 -6 l3 -23 14 24 c7
13 14 45 16 70 4 77 4 78 16 58 15 -26 18 -53 24 -197 3 -69 8 -147 11 -175 5
-48 9 -120 18 -288 l4 -77 -28 23 c-60 51 -275 233 -299 255 l-26 22 30 -10
c16 -6 35 -16 41 -21 8 -7 13 0 17 23 3 18 8 43 12 56 4 13 3 22 -3 22 -6 0
-39 30 -74 67 -133 140 -177 183 -186 183 -6 0 -12 9 -14 20 -2 12 -7 19 -11
18 -5 -2 -15 9 -23 25 -13 24 -25 32 -46 28 -5 0 -8 5 -8 12 0 8 -9 22 -20 32
-11 10 -20 15 -20 10 0 -4 -7 -2 -15 5 -8 7 -13 16 -10 20 3 5 -7 22 -22 38
-16 16 -37 40 -48 53 -36 42 -100 94 -115 94 -8 0 -14 5 -13 12 4 19 -73 94
-90 87 -11 -4 -17 2 -19 18 -2 13 -8 22 -14 21 -6 -1 -17 9 -24 22 -14 27 -63
51 -81 39 -8 -4 -10 -3 -5 4 5 8 0 12 -13 12 -12 0 -21 -5 -21 -10 0 -16 23
-52 44 -70 10 -9 17 -22 15 -29 -3 -8 -19 1 -45 26 -22 21 -55 49 -73 63 -69
51 -87 70 -69 70 9 0 19 -6 22 -12z m2006 -8 c0 -11 -5 -20 -12 -20 -9 0 -9
-3 0 -12 16 -16 16 -118 0 -118 -10 0 -10 -2 -1 -8 16 -10 17 -410 1 -429 -7
-9 -7 -13 1 -13 6 0 11 -14 11 -31 0 -24 -4 -30 -15 -25 -8 3 -15 1 -15 -3 0
-5 7 -11 15 -15 12 -4 15 -31 15 -156 0 -82 -3 -150 -8 -150 -6 0 -67 171 -87
248 -4 12 -11 22 -17 22 -6 0 -8 10 -4 25 6 22 3 25 -18 25 -14 0 -27 4 -30 9
-8 12 -37 117 -49 179 -12 58 -29 72 -20 17 6 -34 5 -35 -29 -35 l-34 0 -58
156 c-32 85 -73 200 -91 255 l-34 99 240 0 c232 0 239 -1 239 -20z m-3463 -32
c-3 -7 -5 -2 -5 12 0 14 2 19 5 13 2 -7 2 -19 0 -25z m726 25 c-7 -2 -21 -2
-30 0 -10 3 -4 5 12 5 17 0 24 -2 18 -5z m-136 -19 c-3 -3 -12 -4 -19 -1 -8 3
-5 6 6 6 11 1 17 -2 13 -5z m143 -4 c0 -11 -31 -11 -75 0 -26 7 -22 8 23 9 29
0 52 -3 52 -9z m-793 -32 c-3 -8 -6 -5 -6 6 -1 11 2 17 5 13 3 -3 4 -12 1 -19z
m804 -7 c17 -16 18 -19 4 -31 -12 -10 -15 -10 -15 4 0 9 -4 16 -10 16 -5 0
-10 7 -10 15 0 20 7 19 31 -4z m506 -97 c56 -43 102 -81 102 -84 0 -3 -15 -15
-34 -27 -19 -12 -35 -17 -35 -11 0 6 -10 8 -24 4 -19 -5 -46 11 -135 77 -61
45 -111 85 -111 89 0 11 100 38 125 33 5 -1 56 -37 112 -81z m-1007 -42 c74
-42 150 -84 169 -93 29 -16 34 -24 35 -59 1 -22 -1 -40 -6 -40 -4 0 -8 -11 -8
-25 0 -32 -23 -32 -48 0 l-20 25 -7 -28 c-8 -29 -7 -31 -30 36 -11 33 -23 27
-27 -15 -2 -20 -9 -38 -16 -41 -9 -3 -11 3 -6 24 5 19 4 25 -5 20 -6 -4 -9
-12 -6 -17 9 -14 -24 -23 -39 -10 -10 9 -15 8 -20 -4 -12 -31 -22 -5 -18 45 2
30 -1 57 -8 65 -18 21 -54 3 -62 -31 -5 -22 -6 -18 -5 17 2 42 0 47 -25 57
-26 10 -28 14 -28 71 l0 60 28 -12 c61 -27 241 -133 242 -141 0 -6 -5 -5 -12
2 -14 14 -64 16 -72 4 -3 -5 8 -6 25 -4 24 4 29 1 29 -17 0 -27 11 -27 28 -1
10 17 16 19 33 9 11 -6 24 -7 27 -3 4 4 3 8 -3 10 -5 2 -62 33 -125 69 -63 36
-134 73 -157 82 -24 10 -43 24 -43 31 0 15 -7 19 180 -86z m3277 56 c-3 -7 -5
-2 -5 12 0 14 2 19 5 13 2 -7 2 -19 0 -25z m-1830 16 c-3 -3 -12 -4 -19 -1 -8
3 -5 6 6 6 11 1 17 -2 13 -5z m27 -39 c6 -11 15 -23 20 -26 4 -4 3 -9 -2 -13
-6 -3 -13 -2 -17 4 -3 5 -18 10 -33 11 -15 0 -36 5 -47 10 -15 7 -9 8 23 4 25
-3 42 -1 42 5 0 5 -9 10 -21 10 -11 0 -17 4 -14 11 10 15 36 7 49 -16z m-1964
-185 c0 -100 -4 -160 -10 -160 -6 0 -10 60 -10 160 0 100 4 160 10 160 6 0 10
-60 10 -160z m1100 150 c0 -5 -4 -10 -9 -10 -6 0 -13 5 -16 10 -3 6 1 10 9 10
9 0 16 -4 16 -10z m1687 -12 c-3 -8 -6 -5 -6 6 -1 11 2 17 5 13 3 -3 4 -12 1
-19z m-1112 2 c-27 -12 -43 -12 -25 0 8 5 22 9 30 9 10 0 8 -3 -5 -9z m-830
-90 c3 -5 -1 -10 -9 -10 -10 0 -16 -9 -16 -24 0 -14 -4 -28 -10 -31 -11 -7
-14 57 -3 68 10 10 31 8 38 -3z m280 -5 c26 0 27 -43 1 -69 -18 -18 -18 -20
-1 -32 9 -7 14 -18 10 -24 -5 -8 -11 -8 -21 1 -11 9 -20 9 -41 0 -18 -8 -29
-9 -36 -2 -7 7 -5 12 5 16 16 7 13 45 -3 45 -5 0 -9 14 -9 30 0 23 5 30 19 30
11 0 23 5 26 10 4 6 12 7 18 3 7 -4 21 -7 32 -8z m-125 -5 c0 -5 -11 -10 -25
-10 -16 0 -25 -6 -25 -15 0 -8 6 -15 14 -15 17 0 41 -28 32 -37 -3 -3 -15 2
-26 12 -20 18 -20 18 -20 -18 0 -21 -4 -37 -10 -37 -5 0 -10 14 -10 30 0 30
-13 40 -25 20 -4 -6 -11 -7 -17 -4 -6 4 2 17 18 33 l29 26 -28 3 c-51 6 -27
22 33 22 33 0 60 -4 60 -10z m978 -56 c68 -32 149 -90 163 -116 6 -11 13 -17
16 -14 3 3 0 12 -7 21 -17 20 -5 32 15 15 9 -8 14 -22 11 -32 -9 -37 63 -166
85 -152 8 5 13 -10 10 -29 0 -4 5 -6 11 -5 14 3 51 -66 68 -125 6 -21 14 -45
17 -53 8 -22 -31 -18 -52 6 -15 16 -27 19 -79 15 -33 -2 -74 -6 -91 -9 -16 -2
-59 -7 -95 -11 -36 -3 -68 -12 -73 -18 -5 -9 -11 -8 -20 3 -6 8 -18 15 -24 16
-7 1 -27 2 -44 3 -16 0 -28 5 -25 10 4 5 -2 7 -11 5 -10 -3 -49 -1 -88 3 -38
5 -92 5 -120 2 -27 -3 -51 -5 -52 -4 -5 3 109 115 118 115 5 0 8 3 7 8 -1 4 4
17 11 30 7 13 11 40 10 60 -2 21 0 43 4 49 4 6 4 34 1 63 -3 32 -2 50 4 46 5
-3 12 7 15 23 4 20 16 33 41 45 19 9 38 21 42 27 7 12 42 27 63 28 8 1 39 -11
69 -25z m-698 8 c0 -13 -12 -22 -22 -16 -10 6 -1 24 13 24 5 0 9 -4 9 -8z m40
-2 c0 -5 -4 -10 -10 -10 -5 0 -10 5 -10 10 0 6 5 10 10 10 6 0 10 -4 10 -10z
m40 0 c0 -5 -4 -10 -10 -10 -5 0 -10 5 -10 10 0 6 5 10 10 10 6 0 10 -4 10
-10z m-140 -40 c0 -33 -3 -40 -20 -40 -24 0 -27 15 -4 24 8 3 12 11 9 16 -7
11 0 40 10 40 3 0 5 -18 5 -40z m-450 -5 c0 -31 -3 -35 -25 -35 -14 0 -25 5
-25 10 0 6 7 10 15 10 9 0 15 9 15 25 0 14 5 25 10 25 6 0 10 -16 10 -35z
m2127 -32 c-3 -10 -5 -2 -5 17 0 19 2 27 5 18 2 -10 2 -26 0 -35z m-2187 -3
c0 -5 -4 -10 -10 -10 -5 0 -10 5 -10 10 0 6 5 10 10 10 6 0 10 -4 10 -10z
m2126 -46 c34 -16 40 -34 16 -42 -7 -2 -12 4 -12 12 0 12 -6 15 -24 10 -29 -7
-37 4 -29 37 4 13 8 18 11 11 2 -6 19 -19 38 -28z m-2397 -22 c1 9 6 20 13 24
8 5 9 0 6 -14 -4 -12 -2 -22 3 -22 5 0 9 -4 9 -10 0 -5 -9 -10 -20 -10 -11 0
-20 -4 -20 -10 0 -5 9 -10 20 -10 11 0 20 -4 20 -10 0 -5 -8 -10 -19 -10 -11
0 -21 -9 -24 -21 -6 -23 -27 -17 -27 7 0 8 -10 14 -25 14 -14 0 -25 5 -25 10
0 6 11 10 25 10 14 0 25 5 25 10 0 6 -8 10 -18 10 -14 0 -19 8 -19 30 0 35 14
39 27 8 8 -22 9 -22 9 -2 1 33 14 37 27 7 8 -18 13 -22 13 -11z m321 23 c0 -8
-6 -15 -14 -15 -8 0 -16 -5 -18 -11 -2 -7 -12 -7 -31 0 -31 12 -29 32 2 24 11
-3 28 0 38 6 23 14 23 14 23 -4z m369 0 c46 14 56 1 53 -70 l-4 -65 -34 0
c-20 0 -34 5 -34 13 0 8 -3 8 -9 -2 -8 -12 -12 -12 -25 1 -20 21 -17 108 4
125 10 7 17 8 21 1 4 -6 16 -7 28 -3z m466 -50 c3 -35 4 -69 0 -75 -9 -15 -35
-12 -42 6 -4 12 -8 13 -14 3 -4 -7 -15 -14 -23 -15 -13 -2 -16 10 -16 66 0 67
1 69 28 73 61 9 59 11 67 -58z m-1014 45 c30 0 42 -20 12 -20 -17 -1 -17 -1 0
-14 16 -13 16 -14 -4 -19 -12 -3 -18 -10 -14 -16 3 -6 10 -9 14 -7 4 3 13 0
21 -5 12 -7 11 -10 -7 -15 -13 -4 -23 -13 -23 -20 0 -19 -16 -18 -24 1 -3 8
-16 15 -30 15 -31 0 -41 14 -21 30 11 9 12 17 4 32 -12 23 6 52 28 43 8 -3 28
-5 44 -5z m447 -18 c19 -24 14 -70 -9 -93 -16 -16 -24 -18 -32 -9 -9 8 -8 15
6 24 17 14 23 47 10 60 -5 4 -13 -9 -19 -31 -7 -26 -17 -39 -31 -41 -42 -6
-36 71 8 101 23 17 47 13 67 -11z m252 -9 c0 -24 8 -45 21 -59 12 -12 19 -28
17 -35 -3 -8 -14 -2 -30 16 l-26 28 -26 -29 c-30 -34 -35 -14 -6 23 21 27 27
73 10 73 -5 0 -10 5 -10 10 0 6 11 10 25 10 22 0 25 -4 25 -37z m185 27 c3 -6
-2 -10 -12 -10 -11 0 -14 -3 -7 -8 27 -17 16 -112 -13 -112 -13 0 -13 3 -3 15
11 13 8 15 -19 15 -21 0 -31 -5 -31 -15 0 -8 -4 -15 -9 -15 -14 0 -19 35 -11
79 4 24 3 41 -2 41 -5 0 -7 3 -4 8 7 11 104 13 111 2z m-645 -40 c0 -22 -4
-40 -10 -40 -11 0 -14 63 -3 73 11 12 13 8 13 -33z m58 28 c20 -20 14 -67 -13
-93 -26 -27 -45 -32 -45 -12 0 7 10 17 23 22 24 11 35 51 18 68 -6 6 -11 15
-11 19 0 12 14 10 28 -4z m-161 -49 c9 -22 9 -38 2 -50 -12 -23 -39 -25 -39
-4 0 8 7 15 15 15 17 0 20 16 5 25 -12 7 -14 45 -2 45 4 0 13 -14 19 -31z m38
-10 c6 -19 0 -38 -9 -28 -10 12 -16 49 -7 49 5 0 13 -9 16 -21z m2110 11 c-3
-5 -11 -10 -16 -10 -6 0 -7 5 -4 10 3 6 11 10 16 10 6 0 7 -4 4 -10z m-2185
-8 c0 -5 -7 -17 -15 -28 -15 -19 -20 -8 -9 20 6 17 24 22 24 8z m1710 -52 c0
-11 7 -20 15 -20 9 0 12 -6 9 -15 -5 -12 -10 -10 -25 9 -21 26 -25 46 -9 46 6
0 10 -9 10 -20z m1127 -26 c18 -11 73 -109 73 -130 0 -4 25 -73 56 -153 48
-127 79 -251 61 -251 -3 0 -11 17 -17 38 -16 48 -53 126 -63 130 -4 2 -5 8 -1
13 3 5 0 9 -6 9 -6 0 -8 4 -5 10 5 8 -19 57 -36 70 -18 15 -26 46 -18 69 6 16
6 28 -1 35 -7 7 -10 6 -10 -2 0 -7 -7 -12 -16 -12 -9 0 -14 5 -12 11 2 6 -12
27 -30 47 -30 31 -32 36 -17 45 15 8 15 10 -6 21 -29 14 -36 36 -12 36 17 1
17 1 1 14 -10 7 -18 16 -18 20 0 9 51 -4 77 -20z m-3517 -49 c0 -37 -4 -65
-10 -65 -6 0 -10 28 -10 65 0 37 4 65 10 65 6 0 10 -28 10 -65z m3399 -60 c46
-47 78 -85 71 -85 -10 0 -10 -4 1 -17 13 -15 12 -15 -6 -5 -36 19 -88 80 -80
93 5 8 4 10 -3 5 -7 -4 -31 11 -57 35 -33 31 -42 45 -33 51 7 4 15 8 18 8 3 0
43 -38 89 -85z m-845 -21 c3 -8 2 -12 -4 -9 -6 3 -10 10 -10 16 0 14 7 11 14
-7z m9 -40 c12 -15 31 -35 41 -45 11 -10 17 -21 15 -24 -3 -2 -27 18 -54 45
-27 28 -44 50 -37 50 7 0 22 -12 35 -26z m-2563 -4 c0 -11 -4 -20 -10 -20 -5
0 -10 9 -10 20 0 11 5 20 10 20 6 0 10 -9 10 -20z m2495 -115 l60 -54 -31 -1
c-17 0 -40 8 -50 18 -21 19 -58 92 -46 92 4 0 34 -25 67 -55z m-83 28 c18 -16
25 -44 11 -42 -5 0 -18 13 -31 30 -25 31 -11 41 20 12z m-47 -33 c4 -22 11
-42 16 -46 5 -3 9 -14 9 -24 0 -14 6 -18 20 -15 18 4 21 -1 20 -38 0 -23 7
-80 16 -127 23 -121 15 -247 -19 -322 -22 -47 -31 -58 -51 -58 -20 0 -23 4
-20 23 4 21 4 20 -6 -2 -8 -18 -7 -27 2 -33 10 -7 9 -8 -2 -5 -8 2 -14 14 -13
26 2 11 -2 20 -8 18 -6 -1 -16 6 -22 16 -10 14 -9 20 3 27 8 5 16 14 16 20 1
5 2 14 3 20 0 5 8 7 16 4 9 -4 15 0 15 10 0 8 9 20 20 26 30 16 28 82 -3 107
-13 10 -26 26 -29 35 -12 30 -183 146 -197 133 -2 -3 5 -15 17 -28 12 -13 22
-31 22 -40 0 -17 -11 -22 -23 -11 -10 10 -175 19 -250 14 -46 -4 -53 3 -39 35
6 14 8 25 4 25 -19 0 -91 -46 -129 -82 -22 -22 -46 -38 -51 -34 -6 3 -12 1
-14 -5 -2 -6 -27 -14 -55 -16 -58 -6 -87 13 -89 58 -1 21 2 26 16 22 10 -3 27
0 39 7 12 6 74 19 138 30 79 13 126 26 144 39 16 12 38 21 51 21 19 0 26 10
41 58 9 31 17 65 17 75 0 10 8 17 20 17 16 0 20 -7 20 -30 0 -37 56 -98 116
-129 40 -19 141 -41 195 -41 14 0 33 6 42 13 15 10 4 12 -65 12 -51 0 -92 5
-106 13 -29 16 -22 28 6 13 25 -13 152 -15 152 -2 0 5 -19 7 -42 5 l-43 -5 37
21 c43 23 43 49 0 43 -26 -4 -26 -4 6 13 17 9 32 20 32 25 0 8 -5 10 -36 13
-6 1 -18 7 -27 14 -9 8 -30 12 -48 10 -62 -6 -40 36 30 58 67 22 78 18 86 -26z
m-595 13 c16 -9 31 -25 34 -36 5 -21 -1 -21 -95 4 -38 9 -45 15 -42 30 7 25
64 26 103 2z m-1775 -117 c0 -68 -3 -128 -7 -132 -5 -4 -8 52 -8 124 0 73 3
132 8 132 4 0 7 -56 7 -124z m2022 108 c-3 -3 -12 -4 -19 -1 -8 3 -5 6 6 6 11
1 17 -2 13 -5z m67 -3 c3 -4 -6 -6 -19 -3 -14 2 -25 6 -25 8 0 8 39 4 44 -5z
m412 -92 c19 -11 31 -26 28 -31 -4 -6 -2 -8 4 -4 6 3 13 2 17 -4 10 -16 -32
-12 -48 5 -8 8 -17 11 -21 8 -3 -4 -6 5 -7 18 l-1 24 -8 -25 -8 -25 -1 28 c-1
32 2 33 45 6z m-935 -51 c3 -20 13 -47 21 -60 l15 -23 -46 0 c-28 0 -50 5 -57
14 -8 10 -13 11 -18 3 -11 -19 -56 27 -54 55 2 20 7 24 25 20 16 -3 23 1 23
10 0 9 6 13 13 10 8 -3 20 -1 28 4 26 16 44 5 50 -33z m54 -11 c5 -4 43 -6 83
-6 40 1 75 -1 79 -5 3 -3 -2 -6 -13 -6 -10 -1 -30 -7 -44 -15 -23 -13 -21 -14
30 -8 63 6 101 22 108 43 4 12 2 13 -9 4 -8 -6 -23 -14 -34 -18 -16 -6 -14 -1
8 22 27 28 30 29 46 14 16 -16 16 -19 2 -39 -13 -19 -34 -32 -61 -38 -41 -10
-127 -16 -159 -10 -45 8 -56 21 -65 80 -6 37 -5 38 6 15 7 -14 17 -28 23 -33z
m1120 -31 c22 -20 43 -36 48 -36 4 0 7 -4 7 -10 0 -26 -59 -7 -119 38 -64 47
-64 47 -35 53 35 7 47 1 99 -45z m-2230 -26 c18 -8 18 -9 -5 -9 -14 0 -32 4
-40 9 -12 8 -12 10 5 9 11 0 29 -4 40 -9z m2405 -106 c0 -22 -2 -25 -15 -14
-8 7 -15 19 -15 26 0 8 7 14 15 14 10 0 15 -10 15 -26z m-2387 9 c-7 -2 -19
-2 -25 0 -7 3 -2 5 12 5 14 0 19 -2 13 -5z m51 -78 c3 -8 1 -15 -4 -15 -6 0
-10 7 -10 15 0 8 2 15 4 15 2 0 6 -7 10 -15z m1620 0 c3 -10 -1 -15 -11 -15
-15 0 -15 -1 -1 -12 19 -16 32 -65 18 -73 -5 -3 -25 6 -44 20 -24 18 -50 28
-81 30 -56 3 -73 15 -22 15 21 0 37 3 37 8 0 4 15 8 33 9 17 1 36 9 42 18 13
19 21 19 29 0z m1466 -5 c0 -6 8 -23 18 -38 l17 -26 6 39 c5 34 6 30 7 -25 1
-49 -1 -61 -9 -47 -5 9 -14 17 -19 17 -5 0 -19 10 -32 23 -19 18 -21 27 -13
45 10 23 25 30 25 12z m-749 -74 c0 -30 -2 -60 -6 -66 -3 -5 -1 -10 4 -10 7 0
11 -28 11 -71 0 -44 -4 -68 -10 -64 -5 3 -10 2 -10 -4 0 -5 5 -13 10 -16 6 -3
10 -20 10 -38 0 -29 -1 -30 -15 -11 -11 14 -14 15 -9 3 3 -11 -3 -23 -16 -32
-19 -13 -25 -13 -51 0 -29 14 -29 15 -29 99 0 47 4 83 9 80 5 -3 11 15 14 41
3 26 12 52 21 58 9 7 16 19 16 27 0 9 7 21 15 28 8 7 15 22 15 33 0 15 3 18
11 10 6 -6 10 -36 10 -67z m-911 40 c0 -9 -63 -36 -69 -30 -9 8 30 34 51 34
10 0 18 -2 18 -4z m-1422 -37 l82 -12 0 -54 0 -53 -42 6 c-137 19 -162 25
-169 36 -4 7 -20 12 -36 13 -17 0 -29 6 -31 16 -4 21 24 32 49 19 17 -10 19
-7 19 21 0 27 3 30 23 26 12 -3 59 -11 105 -18z m2121 -106 c-1 -21 -3 -30 -6
-20 -2 9 -9 15 -14 12 -5 -4 -9 1 -9 9 0 9 6 16 13 16 8 0 7 4 -3 10 -13 8
-12 10 3 10 13 0 17 -8 16 -37z m-539 -24 c0 -29 -135 -52 -170 -29 -11 7 -1
10 35 10 28 1 66 7 85 14 45 18 50 18 50 5z m56 -4 c7 -17 -3 -51 -12 -42 -3
3 -7 17 -8 31 -3 28 11 36 20 11z m1468 -51 c16 -6 22 -45 9 -58 -10 -9 -4
-89 8 -100 11 -12 12 -56 1 -56 -21 0 -32 29 -32 87 0 54 -3 63 -18 63 -10 0
-35 8 -56 18 -33 16 -35 20 -21 32 13 11 18 10 33 -3 16 -15 19 -15 30 3 13
21 21 24 46 14z m-1664 -180 c0 -8 -5 -12 -10 -9 -6 4 -8 11 -5 16 9 14 15 11
15 -7z m68 -1 c-10 -2 -26 -2 -35 0 -10 3 -2 5 17 5 19 0 27 -2 18 -5z m884
-45 c-7 -7 -12 -8 -12 -2 0 6 3 14 7 17 3 4 9 5 12 2 2 -3 -1 -11 -7 -17z
m-562 -48 c0 -5 -2 -10 -4 -10 -3 0 -8 5 -11 10 -3 6 -1 10 4 10 6 0 11 -4 11
-10z m1300 -20 c0 -26 -4 -30 -26 -30 -32 0 -64 17 -64 34 0 9 11 12 35 10 19
-1 35 2 35 7 0 5 5 9 10 9 6 0 10 -13 10 -30z m-1486 -52 c6 -4 8 -9 6 -11
-41 -33 -85 -58 -127 -72 -68 -21 -103 -17 -52 8 20 9 40 27 43 39 5 14 9 18
13 11 2 -7 9 -13 14 -13 6 0 8 4 4 9 -3 5 2 17 11 25 14 14 17 14 30 1 19 -18
25 -19 23 -2 -1 6 -1 21 0 32 l2 20 11 -20 c6 -11 16 -23 22 -27z m1267 -171
c-10 -9 -11 -8 -5 6 3 10 9 15 12 12 3 -3 0 -11 -7 -18z m217 -98 c-3 -33 -4
-33 -8 8 -3 23 -2 39 3 34 5 -5 7 -24 5 -42z m-20 -69 c0 -23 -1 -22 -8 5 -4
17 -8 48 -8 70 l1 40 8 -45 c4 -25 7 -56 7 -70z m332 -130 c-35 -31 -41 -40
-28 -45 10 -4 15 -13 11 -23 -4 -14 -3 -14 5 -3 6 8 8 21 5 30 -3 11 1 9 14
-5 13 -15 27 -20 51 -17 22 2 32 -1 30 -9 -5 -14 -24 -18 -153 -32 -34 -3 -55
-12 -67 -26 -30 -37 -51 -21 -26 20 9 14 9 23 2 30 -8 8 -17 -1 -32 -32 -27
-57 -51 -89 -52 -68 0 22 65 120 98 147 31 26 52 29 52 8 0 -22 9 -18 65 25
65 51 83 51 25 0z m-385 -244 l52 -55 -25 -22 c-20 -17 -26 -19 -33 -8 -4 8
-19 29 -33 48 -23 31 -36 91 -20 91 3 0 30 -24 59 -54z m65 -96 c0 -14 -7 -20
-22 -20 -20 0 -21 1 -3 20 10 11 20 20 22 20 1 0 3 -9 3 -20z"/>
<path d="M845 4233 c0 -21 5 -37 10 -35 14 3 13 64 -1 69 -7 2 -10 -11 -9 -34z"/>
<path d="M849 4178 c-6 -12 -3 -138 3 -138 4 0 8 24 8 54 0 30 3 61 6 70 5 12
-11 25 -17 14z"/>
<path d="M851 3974 c0 -11 3 -14 6 -6 3 7 2 16 -1 19 -3 4 -6 -2 -5 -13z"/>
<path d="M840 3930 c0 -5 5 -10 11 -10 5 0 7 5 4 10 -3 6 -8 10 -11 10 -2 0
-4 -4 -4 -10z"/>
<path d="M834 3880 c3 -14 6 -36 7 -50 1 -22 2 -20 11 9 8 28 6 37 -8 50 -15
15 -16 14 -10 -9z"/>
<path d="M841 3774 c0 -11 3 -14 6 -6 3 7 2 16 -1 19 -3 4 -6 -2 -5 -13z"/>
<path d="M2540 5021 c30 -24 42 -27 34 -6 -4 8 -10 15 -14 15 -5 0 -17 3 -27
6 -13 4 -11 0 7 -15z"/>
<path d="M2828 4983 c6 -35 20 -53 40 -53 13 0 13 2 0 18 -9 9 -18 26 -19 36
-2 11 -9 21 -15 23 -7 2 -10 -6 -6 -24z"/>
<path d="M2991 4990 c-1 -14 -2 -58 -1 -97 1 -46 -3 -73 -9 -73 -7 0 -11 27
-11 71 0 71 -13 115 -31 104 -6 -4 -5 -13 1 -25 5 -10 10 -50 10 -89 0 -56 3
-71 15 -71 8 0 15 -6 15 -12 0 -7 11 -23 24 -35 l24 -23 -3 126 c-2 69 -6 128
-9 132 -3 3 -7 -44 -8 -104 l-2 -109 -6 115 c-3 63 -7 104 -9 90z"/>
<path d="M3221 4973 c-1 -23 4 -45 10 -48 18 -12 19 0 5 46 l-14 44 -1 -42z"/>
<path d="M3044 4896 c3 -27 6 -82 6 -122 0 -41 3 -74 8 -74 4 0 7 49 7 109 0
80 -4 114 -14 123 -11 11 -13 5 -7 -36z"/>
<path d="M3084 4885 c-3 -8 -4 -56 -2 -107 5 -97 21 -159 39 -141 6 6 4 21 -7
42 -11 22 -17 62 -18 127 0 51 -2 94 -4 94 -1 0 -5 -7 -8 -15z"/>
<path d="M3117 4778 c6 -93 9 -102 18 -55 8 41 -2 127 -14 127 -5 0 -6 -33 -4
-72z"/>
<path d="M3151 4773 c4 -32 8 -70 8 -85 1 -16 6 -28 11 -28 10 0 8 46 -6 138
-9 57 -20 34 -13 -25z"/>
<path d="M3180 4759 c0 -11 5 -17 10 -14 6 3 10 13 10 21 0 8 -4 14 -10 14 -5
0 -10 -9 -10 -21z"/>
<path d="M3230 4642 c0 -23 5 -42 10 -42 7 0 8 14 4 38 -9 51 -14 53 -14 4z"/>
<path d="M3203 4600 c0 -36 2 -50 4 -32 2 17 2 47 0 65 -2 17 -4 3 -4 -33z"/>
<path d="M3150 4621 c0 -12 5 -21 10 -21 6 0 10 6 10 14 0 8 -4 18 -10 21 -5
3 -10 -3 -10 -14z"/>
<path d="M3225 4553 c4 -10 10 -26 12 -35 3 -10 10 -18 15 -18 6 0 7 7 4 16
-3 9 -6 24 -6 35 0 11 -7 19 -16 19 -11 0 -14 -5 -9 -17z"/>
<path d="M4160 5000 c0 -19 3 -21 12 -12 9 9 9 15 0 24 -9 9 -12 7 -12 -12z"/>
<path d="M4041 4928 c0 -13 4 -32 9 -43 7 -16 9 -13 9 17 1 20 -3 40 -9 43 -6
3 -10 -4 -9 -17z"/>
<path d="M4265 4430 c3 -5 10 -10 16 -10 5 0 9 5 9 10 0 6 -7 10 -16 10 -8 0
-12 -4 -9 -10z"/>
<path d="M4320 4354 c0 -16 9 -18 28 -5 10 6 9 10 -7 14 -14 3 -21 0 -21 -9z"/>
<path d="M1192 4660 c0 -14 2 -19 5 -12 2 6 2 18 0 25 -3 6 -5 1 -5 -13z"/>
<path d="M1258 4673 c6 -2 18 -2 25 0 6 3 1 5 -13 5 -14 0 -19 -2 -12 -5z"/>
<path d="M1745 4680 c3 -5 8 -10 11 -10 2 0 4 5 4 10 0 6 -5 10 -11 10 -5 0
-7 -4 -4 -10z"/>
<path d="M1785 4680 c3 -5 12 -10 20 -10 8 0 17 5 20 10 4 6 -5 10 -20 10 -15
0 -24 -4 -20 -10z"/>
<path d="M1775 4640 c3 -5 10 -10 16 -10 5 0 9 5 9 10 0 6 -7 10 -16 10 -8 0
-12 -4 -9 -10z"/>
<path d="M2455 4437 c-4 -10 -5 -21 -1 -24 10 -10 18 4 13 24 -4 17 -4 17 -12
0z"/>
<path d="M2270 4429 c0 -5 5 -7 10 -4 6 3 10 8 10 11 0 2 -4 4 -10 4 -5 0 -10
-5 -10 -11z"/>
<path d="M1225 4500 c3 -5 12 -7 20 -3 21 7 19 13 -6 13 -11 0 -18 -4 -14 -10z"/>
<path d="M1235 4470 c-3 -5 1 -10 10 -10 9 0 13 5 10 10 -3 6 -8 10 -10 10 -2
0 -7 -4 -10 -10z"/>
<path d="M1647 4478 c-4 -12 -4 -24 -1 -27 6 -7 24 20 24 37 0 21 -17 13 -23
-10z"/>
<path d="M4135 4210 c-3 -5 -1 -10 4 -10 6 0 11 5 11 10 0 6 -2 10 -4 10 -3 0
-8 -4 -11 -10z"/>
<path d="M2315 3910 c3 -5 14 -10 23 -10 15 0 15 2 2 10 -20 13 -33 13 -25 0z"/>
<path d="M3580 3601 c0 -6 5 -13 10 -16 6 -3 10 1 10 9 0 9 -4 16 -10 16 -5 0
-10 -4 -10 -9z"/>
<path d="M3512 3440 c0 -19 2 -27 5 -17 2 9 2 25 0 35 -3 9 -5 1 -5 -18z"/>
<path d="M3512 3365 c0 -16 2 -22 5 -12 2 9 2 23 0 30 -3 6 -5 -1 -5 -18z"/>
<path d="M1175 3611 c-3 -6 -1 -19 4 -29 6 -11 7 -22 4 -26 -3 -3 2 -6 13 -6
25 0 28 63 2 68 -9 2 -19 -2 -23 -7z m30 -11 c-3 -5 -11 -10 -16 -10 -6 0 -7
5 -4 10 3 6 11 10 16 10 6 0 7 -4 4 -10z"/>
<path d="M1233 3590 c1 -12 8 -20 19 -20 10 0 18 -5 18 -11 0 -6 -9 -8 -21 -4
-15 5 -19 4 -15 -4 15 -23 44 -12 48 19 5 35 2 40 -28 40 -17 0 -22 -5 -21
-20z m37 0 c0 -5 -4 -10 -10 -10 -5 0 -10 5 -10 10 0 6 5 10 10 10 6 0 10 -4
10 -10z"/>
<path d="M1298 3570 c-3 -16 -1 -30 3 -30 4 0 14 -3 23 -6 13 -5 16 1 16 30 0
29 -4 36 -19 36 -13 0 -20 -9 -23 -30z"/>
<path d="M4640 2565 c-16 -19 -6 -32 13 -17 8 7 17 8 22 4 4 -4 6 -1 3 7 -6
21 -23 24 -38 6z"/>
<path d="M3860 4083 c0 -2 5 -13 10 -23 8 -16 8 -18 -5 -14 -18 7 -20 -17 -3
-34 8 -8 8 -15 -1 -26 -9 -11 -10 -20 -1 -36 15 -28 35 -20 35 13 1 15 6 32
13 39 9 9 12 3 12 -30 0 -31 4 -42 15 -42 8 0 15 9 15 20 0 12 7 20 17 20 9 0
13 -3 10 -7 -10 -10 13 -33 33 -33 10 0 21 7 24 16 10 27 7 89 -6 102 -9 9 -9
12 0 12 7 0 12 5 12 10 0 14 -37 12 -43 -2 -3 -8 -6 -6 -6 5 -1 18 -31 24 -31
6 0 -7 -7 -8 -17 -4 -22 8 -83 15 -83 8z m60 -32 c0 -5 -7 -12 -16 -15 -14 -5
-15 -4 -4 9 14 17 20 19 20 6z m73 -28 c-7 -2 -19 -2 -25 0 -7 3 -2 5 12 5 14
0 19 -2 13 -5z"/>
<path d="M3878 3913 c-22 -4 -27 -10 -30 -45 -2 -27 1 -42 9 -45 16 -6 17 -35
1 -51 -18 -18 26 -16 62 3 27 14 33 14 61 -1 20 -10 35 -12 41 -6 6 6 6 12 -1
16 -11 7 -4 34 16 54 16 16 17 29 3 37 -6 4 -8 10 -5 15 3 5 1 12 -5 15 -13 8
-116 14 -152 8z"/>
<path d="M3920 3730 c0 -5 -13 -10 -30 -10 -38 0 -40 -20 -2 -21 24 -2 23 -2
-8 -9 l-35 -7 33 -2 c30 -1 48 -21 19 -21 -7 0 -22 -7 -33 -16 -15 -13 -16
-15 -2 -10 12 4 18 -2 20 -21 3 -24 6 -25 68 -25 l65 0 3 32 c2 20 -2 36 -10
41 -9 6 -7 9 10 9 12 0 22 5 22 10 0 6 -10 10 -22 10 -21 1 -22 2 -6 14 25 19
3 39 -25 23 -15 -9 -21 -9 -24 1 -6 14 -43 16 -43 2z m67 -66 c-3 -3 -12 -4
-19 -1 -8 3 -5 6 6 6 11 1 17 -2 13 -5z m-40 -20 c-3 -3 -12 -4 -19 -1 -8 3
-5 6 6 6 11 1 17 -2 13 -5z m38 -4 c-3 -5 -10 -10 -16 -10 -5 0 -9 5 -9 10 0
6 7 10 16 10 8 0 12 -4 9 -10z m1 -28 c-5 -8 -76 -4 -76 4 0 2 18 4 41 4 22 0
38 -4 35 -8z"/>
<path d="M4090 3680 c0 -5 9 -10 20 -10 11 0 20 5 20 10 0 6 -9 10 -20 10 -11
0 -20 -4 -20 -10z"/>
<path d="M3696 3661 c-7 -11 27 -21 72 -21 44 0 41 16 -5 24 -51 8 -61 8 -67
-3z"/>
<path d="M1870 3566 c0 -33 13 -55 23 -39 7 13 -4 73 -14 73 -5 0 -9 -15 -9
-34z"/>
<path d="M1820 3551 c0 -23 5 -41 10 -41 6 0 10 15 10 34 0 19 -4 38 -10 41
-6 4 -10 -10 -10 -34z"/>
<path d="M4260 3567 c0 -23 48 -83 58 -72 4 3 1 10 -7 14 -7 5 -12 11 -12 15
2 8 -28 66 -34 66 -3 0 -5 -10 -5 -23z"/>
<path d="M3865 3504 c-4 -37 -3 -60 5 -69 16 -19 28 -11 28 20 0 14 -5 22 -11
18 -10 -6 -9 -2 9 56 3 11 0 20 -9 24 -12 4 -16 -7 -22 -49z"/>
<path d="M3960 3545 c11 -13 8 -15 -19 -15 -40 0 -40 -19 -1 -26 33 -7 41 -24
10 -24 -25 0 -44 -32 -28 -48 16 -16 53 -15 68 2 6 8 18 12 26 9 8 -3 14 -1
14 5 0 5 -7 12 -15 16 -20 7 -19 36 3 52 15 12 15 13 1 14 -9 0 -19 7 -23 15
-3 8 -15 15 -27 15 -18 0 -19 -2 -9 -15z m2 -97 c-9 -9 -15 -9 -24 0 -9 9 -7
12 12 12 19 0 21 -3 12 -12z"/>
<path d="M1828 3476 c-55 -16 -68 -24 -68 -40 0 -16 3 -17 12 -8 7 7 24 12 40
12 19 0 26 4 22 14 -4 11 3 13 35 9 33 -5 41 -3 41 10 0 24 -10 25 -82 3z"/>
<path d="M4200 3490 c0 -5 5 -10 10 -10 6 0 10 5 10 10 0 6 -4 10 -10 10 -5 0
-10 -4 -10 -10z"/>
<path d="M3940 3270 c0 -72 4 -129 8 -126 12 7 14 244 2 251 -6 4 -10 -41 -10
-125z"/>
<path d="M4090 3377 c0 -15 4 -27 8 -27 10 0 9 36 -1 46 -4 4 -7 -5 -7 -19z"/>
<path d="M4090 3320 c0 -11 5 -20 10 -20 6 0 10 9 10 20 0 11 -4 20 -10 20 -5
0 -10 -9 -10 -20z"/>
<path d="M4090 3260 c0 -5 5 -10 10 -10 6 0 10 5 10 10 0 6 -4 10 -10 10 -5 0
-10 -4 -10 -10z"/>
<path d="M4093 3205 c1 -22 6 -35 14 -35 8 0 13 13 13 35 0 23 -5 35 -14 35
-10 0 -14 -11 -13 -35z"/>
<path d="M4250 3186 c0 -10 9 -16 21 -16 24 0 21 23 -4 28 -10 2 -17 -3 -17
-12z"/>
<path d="M4250 3133 c0 -7 9 -13 20 -13 11 0 20 6 20 13 0 7 -9 13 -20 13 -11
0 -20 -6 -20 -13z"/>
<path d="M3771 3110 c23 -30 28 -31 107 -35 46 -2 85 -5 87 -7 2 -2 5 -27 7
-56 3 -48 19 -74 33 -52 4 6 3 42 -1 80 l-7 70 -51 0 c-37 0 -47 -3 -36 -10
13 -8 12 -10 -2 -10 -10 0 -18 5 -18 11 0 8 -12 10 -35 6 -23 -4 -37 -1 -42 7
-5 7 -21 16 -37 20 l-30 7 25 -31z"/>
<path d="M4093 3116 c4 -10 -3 -12 -28 -9 -30 3 -33 1 -37 -27 -5 -36 12 -50
65 -50 33 0 34 1 32 38 -4 60 -4 62 -21 62 -9 0 -14 -6 -11 -14z m-36 -58 c-3
-8 -6 -5 -6 6 -1 11 2 17 5 13 3 -3 4 -12 1 -19z"/>
<path d="M4163 3065 c0 -22 2 -30 4 -17 2 12 2 30 0 40 -3 9 -5 -1 -4 -23z"/>
<path d="M4360 3059 c13 -46 20 -48 20 -6 0 25 -4 37 -14 37 -12 0 -13 -7 -6
-31z"/>
<path d="M4270 3034 c0 -8 5 -12 10 -9 6 3 10 10 10 16 0 5 -4 9 -10 9 -5 0
-10 -7 -10 -16z"/>
<path d="M4171 3004 c0 -11 3 -14 6 -6 3 7 2 16 -1 19 -3 4 -6 -2 -5 -13z"/>
<path d="M4073 2980 c-1 -11 2 -22 8 -25 5 -4 9 1 9 9 0 9 0 19 1 23 0 4 -3 9
-8 10 -5 2 -9 -6 -10 -17z"/>
<path d="M4070 2890 c-9 -6 -10 -10 -3 -10 6 0 15 5 18 10 8 12 4 12 -15 0z"/>
<path d="M4006 2853 c9 -38 14 -42 14 -10 0 14 -5 29 -10 32 -7 4 -8 -3 -4
-22z"/>
<path d="M2537 2816 c-4 -10 -7 -32 -6 -49 1 -31 1 -31 10 7 10 43 7 72 -4 42z"/>
<path d="M4098 2763 c7 -3 16 -2 19 1 4 3 -2 6 -13 5 -11 0 -14 -3 -6 -6z"/>
<path d="M4298 2743 c7 -3 16 -2 19 1 4 3 -2 6 -13 5 -11 0 -14 -3 -6 -6z"/>
<path d="M4080 2661 c0 -10 98 -26 107 -18 3 3 2 10 -2 16 -8 13 -105 15 -105
2z"/>
<path d="M1512 2651 c-11 -6 -11 -10 0 -19 16 -13 44 1 34 17 -8 13 -16 14
-34 2z"/>
<path d="M2035 2648 c-4 -10 -18 -18 -31 -18 -13 0 -24 -4 -24 -10 0 -5 7 -10
15 -10 8 0 15 -4 15 -9 0 -5 -7 -14 -15 -21 -26 -21 -16 -31 14 -15 17 8 32
11 35 6 3 -4 -6 -14 -19 -21 -27 -14 -42 -47 -28 -60 12 -13 92 -20 99 -9 3 5
-11 9 -31 9 -38 0 -59 25 -34 41 8 5 15 4 17 -1 6 -17 19 -11 25 10 3 12 14
20 25 20 12 0 24 5 28 11 4 7 -4 10 -22 8 -31 -2 -64 8 -64 21 0 4 14 10 30
14 17 3 30 11 30 17 0 6 -9 9 -20 6 -12 -3 -24 1 -29 11 -9 16 -10 16 -16 0z"/>
<path d="M2237 2640 c-4 -16 -14 -20 -46 -20 -23 0 -41 -4 -41 -10 0 -5 19
-10 43 -11 35 0 38 -2 20 -9 -29 -12 -31 -50 -3 -57 24 -6 25 -11 3 -35 -14
-16 -15 -18 0 -18 25 0 47 41 47 87 0 41 1 43 30 43 17 0 30 5 30 10 0 6 -13
10 -30 10 -20 0 -30 5 -30 15 0 22 -17 18 -23 -5z m-6 -83 c-13 -13 -26 -3
-16 12 3 6 11 8 17 5 6 -4 6 -10 -1 -17z"/>
<path d="M2413 2652 c-38 -4 -44 -19 -11 -24 21 -3 21 -5 -16 -46 -41 -45 -43
-71 -3 -34 31 29 83 30 92 2 4 -12 1 -28 -6 -36 -10 -12 -14 -12 -26 6 -16 22
-53 24 -60 4 -6 -19 26 -44 56 -44 32 0 61 27 61 57 0 26 -30 53 -60 53 l-23
0 23 25 c28 30 19 42 -27 37z m14 -148 c-9 -9 -28 6 -21 18 4 6 10 6 17 -1 6
-6 8 -13 4 -17z"/>
<path d="M2782 2637 c-7 -16 -16 -26 -21 -22 -5 3 -12 1 -15 -4 -3 -5 1 -12
10 -15 11 -4 14 -14 11 -29 -3 -12 -9 -34 -12 -49 -4 -16 -3 -28 3 -28 5 0 15
21 21 48 7 26 22 55 34 64 18 14 19 18 5 18 -9 0 -18 10 -21 23 -3 21 -4 21
-15 -6z"/>
<path d="M2870 2645 c-7 -8 -7 -15 -1 -19 11 -7 41 3 41 14 0 15 -29 19 -40 5z"/>
<path d="M3140 2639 c0 -13 -8 -23 -21 -26 -21 -6 -21 -7 -4 -19 15 -11 16
-18 6 -45 -13 -39 -14 -59 -2 -59 5 0 14 21 20 48 7 26 22 55 34 64 19 15 20
18 5 18 -11 0 -18 8 -18 20 0 11 -4 20 -10 20 -5 0 -10 -9 -10 -21z"/>
<path d="M1396 2604 c-19 -47 -18 -65 4 -39 16 19 70 20 70 1 0 -8 -11 -28
-25 -44 -14 -17 -21 -33 -16 -36 11 -7 61 50 61 70 0 8 11 19 25 24 42 16 28
30 -30 30 -48 0 -55 2 -55 20 0 33 -14 23 -34 -26z"/>
<path d="M1827 2591 c-13 -40 -25 -61 -38 -64 -10 -3 -19 -10 -19 -15 0 -6 35
-10 89 -9 l90 2 -19 30 c-23 37 -40 43 -40 16 0 -17 -6 -21 -30 -21 -35 0 -34
-4 -15 50 17 47 19 70 8 70 -5 0 -16 -27 -26 -59z"/>
<path d="M3325 2642 c6 -5 21 -13 34 -17 17 -5 22 -4 19 6 -3 8 -18 15 -34 17
-19 2 -25 0 -19 -6z"/>
<path d="M2574 2626 c-32 -23 -47 -67 -35 -99 21 -56 72 -23 86 56 7 38 22 46
43 25 21 -21 14 -65 -13 -86 -32 -25 -14 -40 20 -18 34 22 42 72 18 105 -24
31 -86 40 -119 17z m26 -60 c-13 -41 -29 -54 -41 -35 -10 17 -2 48 19 72 24
27 36 6 22 -37z"/>
<path d="M3458 2628 c-8 -24 -2 -118 8 -118 5 -1 10 8 12 20 2 13 11 20 27 20
13 0 30 3 39 6 19 7 21 55 4 72 -16 16 -85 16 -90 0z m80 -35 c3 -20 -1 -23
-27 -23 -27 0 -31 4 -31 26 0 22 4 25 28 22 19 -2 28 -9 30 -25z"/>
<path d="M3602 2628 c-22 -22 -13 -46 26 -65 20 -11 37 -26 37 -34 0 -20 -44
-24 -51 -5 -8 20 -24 21 -24 1 0 -19 41 -36 69 -28 25 6 37 39 21 57 -6 8 -24
19 -40 26 -17 7 -30 17 -30 22 0 15 30 22 43 9 6 -6 18 -11 26 -11 11 0 10 4
-4 20 -20 22 -55 26 -73 8z"/>
<path d="M3732 2628 c-14 -14 -16 -38 -3 -38 5 0 12 7 15 16 7 18 47 15 54 -4
2 -7 -5 -16 -17 -19 -27 -7 -27 -23 0 -23 15 0 20 -5 17 -22 -4 -28 -30 -34
-51 -13 -19 19 -27 19 -27 0 0 -16 30 -35 54 -35 9 0 25 9 36 20 16 16 18 24
10 41 -6 11 -8 29 -5 40 4 11 1 26 -5 34 -15 18 -61 20 -78 3z"/>
<path d="M3308 2604 c-5 -4 -8 -25 -8 -46 l0 -38 39 20 c41 22 74 18 69 -9 -2
-9 -18 -20 -36 -26 -37 -11 -43 -25 -9 -25 30 0 67 27 67 49 0 30 -26 44 -70
38 -36 -5 -39 -3 -42 20 -2 14 -6 21 -10 17z"/>
<path d="M2957 2588 c-40 -15 -24 -27 21 -15 50 13 74 4 70 -25 -2 -16 -13
-26 -35 -33 -34 -10 -45 -25 -17 -25 36 0 74 31 74 62 0 42 -52 59 -113 36z"/>
<path d="M2836 2581 c-11 -4 -15 -10 -10 -13 13 -8 74 3 74 13 0 11 -37 11
-64 0z"/>
<path d="M3192 2583 c-23 -9 -1 -23 26 -17 40 10 51 24 17 23 -17 0 -36 -3
-43 -6z"/>
<path d="M1570 2570 c0 -6 37 -10 90 -10 53 0 90 4 90 10 0 6 -37 10 -90 10
-53 0 -90 -4 -90 -10z"/>
<path d="M2815 2500 c7 -12 74 -25 83 -16 3 4 0 11 -8 16 -20 13 -83 13 -75 0z"/>
<path d="M3184 2495 c21 -16 76 -20 76 -6 0 10 -35 21 -70 21 -24 -1 -24 -1
-6 -15z"/>
<path d="M2592 2390 c0 -14 2 -19 5 -12 2 6 2 18 0 25 -3 6 -5 1 -5 -13z"/>
<path d="M3672 2391 c-11 -7 -11 -9 2 -14 9 -4 16 -15 16 -25 0 -24 29 -65 30
-41 0 8 -5 20 -11 26 -8 8 -8 17 0 31 6 11 11 23 11 26 0 9 -33 7 -48 -3z"/>
<path d="M3765 2390 c-3 -5 -1 -10 4 -10 6 0 11 5 11 10 0 6 -2 10 -4 10 -3 0
-8 -4 -11 -10z"/>
<path d="M1303 2340 c0 -25 2 -35 4 -22 2 12 2 32 0 45 -2 12 -4 2 -4 -23z"/>
<path d="M3420 2370 c0 -5 17 -10 38 -9 30 0 33 2 17 9 -28 12 -55 12 -55 0z"/>
<path d="M3765 2360 c-3 -5 -1 -10 4 -10 6 0 11 5 11 10 0 6 -2 10 -4 10 -3 0
-8 -4 -11 -10z"/>
<path d="M1372 2326 c-6 -12 -13 -31 -15 -43 -4 -20 -3 -21 12 -10 26 18 81
65 81 69 0 2 -15 3 -34 4 -26 0 -37 -5 -44 -20z"/>
<path d="M1569 2323 c-23 -12 -48 -23 -58 -23 -9 0 -34 -9 -56 -19 l-40 -19
57 -1 c48 -1 66 5 127 40 39 22 71 42 71 43 0 12 -68 -2 -101 -21z"/>
<path d="M3760 2306 c0 -30 -4 -35 -27 -39 -16 -2 103 -4 262 -3 l290 1 -252
2 -253 3 0 35 c0 19 -4 35 -10 35 -5 0 -10 -15 -10 -34z"/>
<path d="M2610 2285 c0 -11 -21 -15 -107 -18 l-108 -3 117 -2 c112 -2 116 -1
111 18 -6 23 -13 26 -13 5z"/>
<path d="M2223 2263 c26 -2 67 -2 90 0 23 2 2 3 -48 3 -49 0 -68 -1 -42 -3z"/>
<path d="M2903 2263 c147 -2 387 -2 535 0 147 1 26 2 -268 2 -294 0 -415 -1
-267 -2z"/>
<path d="M102 1998 c-16 -16 -16 -100 0 -116 30 -30 78 6 78 58 0 52 -48 88
-78 58z m43 -58 c0 -49 -21 -66 -31 -26 -8 34 3 79 19 73 7 -2 12 -22 12 -47z"/>
<path d="M382 1998 c-7 -7 -12 -33 -12 -58 0 -69 41 -95 74 -48 41 58 -15 153
-62 106z m43 -58 c0 -49 -21 -66 -31 -26 -8 34 3 79 19 73 7 -2 12 -22 12 -47z"/>
<path d="M680 1940 c0 -40 4 -70 10 -70 6 0 10 15 10 34 0 33 20 62 33 49 4
-3 7 -24 7 -45 0 -27 4 -38 15 -38 11 0 15 12 15 44 0 49 -18 71 -50 61 -16
-5 -20 -2 -20 14 0 12 -4 21 -10 21 -6 0 -10 -30 -10 -70z"/>
<path d="M1090 1995 c-21 -26 -24 -98 -5 -134 22 -44 28 -34 13 22 -10 38 -9
52 4 86 17 41 11 54 -12 26z"/>
<path d="M1200 1991 c0 -15 -5 -18 -21 -14 -27 7 -49 -19 -49 -58 0 -35 16
-47 63 -47 l37 0 0 69 c0 55 -3 69 -15 69 -8 0 -15 -9 -15 -19z m0 -72 c0 -26
-21 -35 -36 -14 -18 25 0 62 22 44 8 -6 14 -20 14 -30z"/>
<path d="M1370 1940 c0 -40 4 -70 10 -70 6 0 10 9 10 20 0 11 4 20 10 20 5 0
14 -9 20 -20 6 -11 18 -20 26 -20 14 0 13 5 -4 32 -18 29 -19 33 -5 55 13 20
14 23 0 23 -8 0 -22 -10 -30 -22 -16 -23 -16 -22 -16 15 -1 20 -5 37 -11 37
-6 0 -10 -30 -10 -70z"/>
<path d="M1470 2000 c0 -5 7 -10 15 -10 8 0 15 5 15 10 0 6 -7 10 -15 10 -8 0
-15 -4 -15 -10z"/>
<path d="M1640 1991 c0 -14 -5 -18 -19 -14 -22 6 -51 -21 -51 -48 0 -41 18
-58 60 -57 l40 0 0 69 c0 55 -3 69 -15 69 -8 0 -15 -9 -15 -19z m-5 -67 c0
-19 -5 -29 -15 -29 -16 0 -25 28 -16 51 10 25 31 10 31 -22z"/>
<path d="M1810 1940 c0 -56 3 -70 15 -70 9 0 15 9 16 23 l0 22 16 -22 c8 -13
22 -23 29 -23 12 0 12 6 -2 32 -13 24 -14 36 -5 50 14 22 14 28 0 28 -7 0 -18
-8 -25 -17 -12 -16 -13 -15 -14 15 0 22 -5 32 -15 32 -12 0 -15 -14 -15 -70z"/>
<path d="M1920 2000 c0 -5 5 -10 10 -10 6 0 10 5 10 10 0 6 -4 10 -10 10 -5 0
-10 -4 -10 -10z"/>
<path d="M1976 1965 c11 -40 11 -52 -1 -88 -16 -47 -12 -60 10 -31 23 30 29
81 14 121 -22 56 -40 54 -23 -2z"/>
<path d="M520 1973 c0 -5 6 -28 14 -53 15 -51 46 -69 46 -26 0 35 18 42 22 9
4 -39 34 -42 41 -5 3 16 9 41 13 56 5 20 2 26 -10 26 -10 0 -16 -9 -16 -25 0
-14 -4 -25 -10 -25 -5 0 -10 12 -10 26 0 37 -33 28 -41 -11 l-6 -30 -8 33 c-4
17 -14 32 -21 32 -8 0 -14 -3 -14 -7z"/>
<path d="M802 1968 c-17 -17 -15 -73 2 -88 23 -18 59 -8 75 21 13 24 13 29 -2
53 -19 28 -54 35 -75 14z m53 -44 c0 -32 -21 -39 -38 -12 -8 12 -7 21 3 32 19
24 35 14 35 -20z"/>
<path d="M923 1973 c-15 -5 -18 -33 -4 -33 6 0 13 5 16 10 8 13 25 13 25 0 0
-5 -11 -12 -24 -16 -28 -7 -41 -31 -26 -49 6 -7 27 -12 48 -12 l37 0 -4 46
c-4 56 -24 72 -68 54z m37 -68 c0 -8 -4 -15 -9 -15 -13 0 -22 16 -14 24 11 11
23 6 23 -9z"/>
<path d="M1260 1965 c-29 -35 -7 -95 35 -95 28 0 48 22 48 55 0 33 -20 55 -48
55 -12 0 -28 -7 -35 -15z m50 -20 c14 -17 4 -55 -15 -55 -17 0 -27 27 -20 51
8 23 18 24 35 4z"/>
<path d="M1470 1925 c0 -42 3 -55 15 -55 12 0 15 13 15 55 0 42 -3 55 -15 55
-12 0 -15 -13 -15 -55z"/>
<path d="M1702 1968 c-17 -17 -15 -73 2 -88 23 -18 59 -8 75 21 13 24 13 29
-2 53 -19 28 -54 35 -75 14z m53 -44 c0 -32 -21 -39 -38 -12 -8 12 -7 21 3 32
19 24 35 14 35 -20z"/>
<path d="M1920 1925 c0 -30 5 -55 10 -55 6 0 10 25 10 55 0 30 -4 55 -10 55
-5 0 -10 -25 -10 -55z"/>
<path d="M212 1958 c-15 -15 -15 -51 0 -66 20 -20 66 -15 73 9 12 38 -2 69
-33 69 -15 0 -33 -5 -40 -12z m61 -19 c8 -31 -3 -50 -27 -47 -36 5 -34 68 3
68 11 0 21 -9 24 -21z"/>
<path d="M750 1545 c0 -8 -7 -15 -15 -15 -7 0 -19 -8 -25 -17 -10 -17 -10 -17
-20 0 -6 9 -20 17 -30 17 -10 0 -24 -8 -30 -17 -10 -17 -10 -17 -20 0 -13 21
-49 23 -56 2 -4 -8 -10 -15 -15 -15 -5 0 -9 7 -9 15 0 9 -9 15 -25 15 -14 0
-28 -7 -31 -15 -9 -22 -134 -22 -134 0 0 9 -9 15 -25 15 -14 0 -28 -7 -31 -15
-8 -19 -24 -20 -24 -1 0 9 -14 14 -45 14 -33 1 -45 -3 -45 -13 0 -19 -16 -19
-24 0 -7 20 -43 19 -55 -2 -13 -23 4 -53 30 -53 11 0 22 7 25 15 8 20 21 19
27 -2 4 -17 5 -17 6 0 0 9 7 17 15 17 8 0 17 -8 19 -17 4 -17 5 -17 6 0 0 9 7
17 15 17 8 0 17 -8 19 -17 4 -17 5 -17 6 0 0 9 6 17 11 17 10 0 11 -3 14 -32
0 -7 12 -13 26 -13 18 0 26 6 28 23 3 20 9 22 68 22 35 0 65 -4 65 -10 1 -5 2
-16 3 -22 0 -7 12 -13 26 -13 18 0 26 6 28 23 4 25 17 29 26 7 7 -21 43 -19
56 3 10 16 10 16 20 0 14 -22 46 -23 58 -2 8 14 10 14 21 0 17 -21 61 -21 61
-1 0 12 16 15 80 15 44 0 80 -4 80 -9 0 -5 -10 -7 -22 -3 -14 3 -19 2 -14 -6
11 -18 44 -14 56 6 10 16 10 16 20 0 14 -22 46 -23 58 -2 13 24 56 14 60 -14
5 -31 46 -27 50 6 4 26 14 28 32 7 16 -19 34 -19 51 1 11 14 13 14 21 0 12
-21 44 -20 58 2 10 16 10 16 20 0 14 -22 60 -24 60 -3 0 12 17 15 95 15 78 0
95 -3 95 -15 0 -8 5 -15 10 -15 6 0 10 7 10 15 0 8 6 15 14 15 7 0 19 -7 26
-15 16 -19 34 -19 51 1 11 14 13 14 21 0 13 -23 68 -21 68 2 0 14 2 15 10 2
13 -21 60 -23 60 -4 0 9 6 14 13 11 6 -2 12 -16 12 -30 -1 -36 14 -34 28 3 9
23 17 30 39 30 18 0 28 -5 28 -15 0 -8 5 -15 10 -15 6 0 10 7 10 15 0 9 9 15
25 15 16 0 25 -6 25 -15 0 -8 5 -15 10 -15 6 0 10 7 10 15 0 21 18 19 23 -2 4
-17 5 -17 6 0 1 12 10 17 31 17 17 0 30 -5 30 -10 0 -6 10 -15 23 -21 l22 -10
-22 5 c-13 2 -23 0 -23 -6 0 -5 12 -8 28 -6 19 2 28 9 30 26 4 25 17 29 26 7
3 -8 15 -15 26 -15 11 0 23 7 26 15 4 8 10 15 15 15 5 0 9 -7 9 -15 0 -8 5
-15 10 -15 6 0 10 7 10 15 0 8 5 15 10 15 6 0 10 -7 10 -15 0 -8 5 -15 10 -15
6 0 10 7 10 15 0 21 18 19 23 -2 4 -17 5 -17 6 0 1 21 31 23 31 2 0 -8 5 -15
10 -15 6 0 10 8 10 18 1 16 1 16 11 0 12 -22 59 -24 59 -3 0 10 10 15 30 15
27 0 30 -3 31 -32 1 -23 3 -26 6 -11 3 15 9 20 20 16 9 -4 21 1 29 12 13 17
14 17 14 2 0 -9 5 -17 10 -17 6 0 10 7 10 15 0 19 26 20 33 1 7 -18 57 -18 57
1 0 8 6 13 13 10 6 -2 12 -16 12 -30 -1 -36 14 -34 28 3 9 23 18 30 38 30 15
0 29 -7 33 -15 3 -8 17 -15 31 -15 16 0 25 6 25 15 0 8 5 15 10 15 6 0 10 -7
10 -15 0 -21 18 -19 23 3 4 16 5 16 6 0 1 -22 21 -24 21 -3 0 20 49 20 56 1 8
-21 64 -18 64 3 1 14 2 13 11 -1 13 -23 59 -24 59 -2 0 9 6 14 13 11 6 -2 12
-16 12 -30 -1 -36 14 -34 28 3 9 25 17 30 43 30 23 0 34 -5 37 -17 4 -17 5
-17 6 0 1 21 17 22 25 2 7 -19 45 -19 52 0 4 8 10 15 15 15 5 0 9 -7 9 -15 0
-8 5 -15 10 -15 6 0 10 7 10 15 0 21 28 19 33 -2 4 -17 5 -17 6 0 0 9 6 17 11
17 10 0 11 -3 14 -32 0 -7 12 -13 26 -13 18 0 26 6 28 22 3 21 9 22 95 26 l92
3 -92 2 c-75 2 -93 5 -93 17 0 21 -47 19 -59 -2 -9 -16 -12 -16 -20 -3 -14 20
-61 23 -61 4 0 -19 -16 -18 -24 1 -3 8 -15 15 -26 15 -11 0 -23 -7 -26 -15
-10 -25 -23 -17 -27 18 l-4 32 -1 -32 c-2 -30 -5 -33 -33 -33 -24 0 -30 4 -25
15 8 21 -11 19 -23 -2 -9 -17 -10 -17 -16 0 -4 9 -12 17 -17 17 -6 0 -8 -7 -4
-15 3 -8 1 -15 -3 -15 -5 0 -11 7 -15 15 -3 8 -15 15 -26 15 -25 0 -27 -17 -2
-23 10 -3 6 -5 -10 -6 -25 -1 -28 3 -28 29 0 17 -4 30 -10 30 -5 0 -10 -9 -10
-20 0 -12 -5 -17 -13 -14 -8 3 -20 -2 -27 -11 -7 -8 -23 -15 -36 -15 -20 0
-24 5 -24 30 0 40 -18 38 -23 -2 l-4 -33 -1 33 c-2 40 -22 43 -22 2 0 -32 -14
-40 -24 -15 -3 8 -15 15 -26 15 -25 0 -27 -17 -2 -23 9 -3 -5 -5 -32 -6 -39
-1 -47 2 -42 14 8 21 -11 19 -23 -2 -9 -17 -10 -17 -16 0 -4 9 -12 17 -17 17
-6 0 -8 -7 -4 -15 3 -8 1 -15 -3 -15 -5 0 -11 7 -15 15 -6 16 -41 20 -51 6 -3
-5 5 -12 17 -14 13 -2 5 -5 -17 -5 -22 0 -34 2 -27 5 19 7 14 19 -8 20 -13 1
-20 -4 -20 -15 -1 -16 -1 -16 -11 0 -11 20 -59 21 -59 1 0 -18 -57 -16 -64 2
-3 8 -15 15 -26 15 -25 0 -27 -17 -2 -23 11 -3 8 -5 -9 -6 -15 -1 -29 5 -33
14 -7 18 -56 16 -56 -2 0 -18 -17 -16 -24 2 -3 8 -17 15 -31 15 -16 0 -25 -6
-25 -15 0 -8 -4 -15 -9 -15 -5 0 -11 7 -15 15 -3 8 -15 15 -26 15 -11 0 -23
-7 -26 -15 -4 -8 -10 -15 -15 -15 -5 0 -9 7 -9 15 0 9 -9 15 -25 15 -14 0 -28
-7 -31 -15 -4 -8 -19 -15 -34 -15 -25 0 -29 4 -33 33 l-4 32 -1 -32 c-2 -41
-22 -44 -22 -3 0 17 -4 30 -10 30 -5 0 -10 -13 -10 -30 0 -25 -4 -30 -25 -30
-21 0 -25 5 -25 30 0 17 -4 30 -10 30 -5 0 -10 -13 -10 -30 0 -26 -4 -30 -26
-30 -19 0 -25 4 -20 15 8 21 -11 19 -23 -2 -9 -17 -10 -17 -16 0 -4 9 -12 17
-17 17 -6 0 -8 -7 -4 -15 3 -8 1 -15 -3 -15 -5 0 -11 7 -15 15 -6 16 -41 20
-51 6 -3 -5 5 -12 17 -14 20 -4 19 -4 -4 -6 -25 -1 -28 3 -28 29 0 17 -4 30
-10 30 -5 0 -10 -9 -10 -20 0 -14 -5 -18 -16 -13 -10 4 -22 -1 -29 -10 -11
-15 -14 -16 -25 -2 -16 19 -34 19 -50 0 -7 -8 -19 -15 -26 -15 -20 0 -17 30 4
46 15 12 12 13 -25 14 -24 0 -43 -4 -43 -10 0 -5 7 -10 15 -10 8 0 15 -9 15
-20 0 -19 -7 -20 -95 -20 l-95 0 -1 33 c-1 17 -3 24 -6 15 -2 -10 -13 -18 -23
-18 -11 0 -24 -8 -30 -17 -10 -17 -10 -17 -20 0 -14 21 -46 22 -58 1 -8 -14
-10 -14 -21 0 -17 20 -35 20 -51 1 -15 -18 -30 -19 -30 -2 0 18 -36 19 -51 1
-15 -18 -55 -18 -63 1 -3 8 -15 15 -26 15 -11 0 -23 -7 -26 -15 -4 -9 -17 -15
-33 -14 -17 1 -20 3 -8 6 9 2 15 9 12 14 -10 14 -42 10 -49 -6 -4 -11 -21 -15
-66 -15 l-60 0 0 30 c0 17 -4 30 -10 30 -5 0 -10 -7 -10 -15z m-623 -41 c-3
-3 -12 -4 -19 -1 -8 3 -5 6 6 6 11 1 17 -2 13 -5z m80 0 c-3 -3 -12 -4 -19 -1
-8 3 -5 6 6 6 11 1 17 -2 13 -5z m380 0 c-3 -3 -12 -4 -19 -1 -8 3 -5 6 6 6
11 1 17 -2 13 -5z m80 0 c-3 -3 -12 -4 -19 -1 -8 3 -5 6 6 6 11 1 17 -2 13 -5z
m80 0 c-3 -3 -12 -4 -19 -1 -8 3 -5 6 6 6 11 1 17 -2 13 -5z m260 0 c-3 -3
-12 -4 -19 -1 -8 3 -5 6 6 6 11 1 17 -2 13 -5z m200 0 c-3 -3 -12 -4 -19 -1
-8 3 -5 6 6 6 11 1 17 -2 13 -5z m80 0 c-3 -3 -12 -4 -19 -1 -8 3 -5 6 6 6 11
1 17 -2 13 -5z m380 0 c-3 -3 -12 -4 -19 -1 -8 3 -5 6 6 6 11 1 17 -2 13 -5z
m590 0 c-3 -3 -12 -4 -19 -1 -8 3 -5 6 6 6 11 1 17 -2 13 -5z m840 0 c-3 -3
-12 -4 -19 -1 -8 3 -5 6 6 6 11 1 17 -2 13 -5z m300 0 c-3 -3 -12 -4 -19 -1
-8 3 -5 6 6 6 11 1 17 -2 13 -5z m-3270 -20 c-3 -3 -12 -4 -19 -1 -8 3 -5 6 6
6 11 1 17 -2 13 -5z m460 0 c-3 -3 -12 -4 -19 -1 -8 3 -5 6 6 6 11 1 17 -2 13
-5z m80 0 c-3 -3 -12 -4 -19 -1 -8 3 -5 6 6 6 11 1 17 -2 13 -5z m80 0 c-3 -3
-12 -4 -19 -1 -8 3 -5 6 6 6 11 1 17 -2 13 -5z m260 0 c-3 -3 -12 -4 -19 -1
-8 3 -5 6 6 6 11 1 17 -2 13 -5z m200 0 c-3 -3 -12 -4 -19 -1 -8 3 -5 6 6 6
11 1 17 -2 13 -5z m80 0 c-3 -3 -12 -4 -19 -1 -8 3 -5 6 6 6 11 1 17 -2 13 -5z
m380 0 c-3 -3 -12 -4 -19 -1 -8 3 -5 6 6 6 11 1 17 -2 13 -5z m590 0 c-3 -3
-12 -4 -19 -1 -8 3 -5 6 6 6 11 1 17 -2 13 -5z m840 0 c-3 -3 -12 -4 -19 -1
-8 3 -5 6 6 6 11 1 17 -2 13 -5z m300 0 c-3 -3 -12 -4 -19 -1 -8 3 -5 6 6 6
11 1 17 -2 13 -5z"/>
<path d="M2000 1544 c0 -8 5 -12 10 -9 6 3 10 10 10 16 0 5 -4 9 -10 9 -5 0
-10 -7 -10 -16z"/>
<path d="M360 1470 c0 -5 5 -10 10 -10 6 0 10 5 10 10 0 6 -4 10 -10 10 -5 0
-10 -4 -10 -10z"/>
<path d="M400 1470 c0 -5 5 -10 10 -10 6 0 10 5 10 10 0 6 -4 10 -10 10 -5 0
-10 -4 -10 -10z"/>
<path d="M430 1470 c0 -5 5 -10 10 -10 6 0 10 5 10 10 0 6 -4 10 -10 10 -5 0
-10 -4 -10 -10z"/>
<path d="M790 1470 c0 -5 5 -10 10 -10 6 0 10 5 10 10 0 6 -4 10 -10 10 -5 0
-10 -4 -10 -10z"/>
<path d="M820 1470 c0 -5 5 -10 10 -10 6 0 10 5 10 10 0 6 -4 10 -10 10 -5 0
-10 -4 -10 -10z"/>
<path d="M860 1470 c0 -5 5 -10 10 -10 6 0 10 5 10 10 0 6 -4 10 -10 10 -5 0
-10 -4 -10 -10z"/>
<path d="M1400 1470 c0 -5 5 -10 10 -10 6 0 10 5 10 10 0 6 -4 10 -10 10 -5 0
-10 -4 -10 -10z"/>
<path d="M1440 1470 c0 -5 5 -10 11 -10 5 0 7 5 4 10 -3 6 -8 10 -11 10 -2 0
-4 -4 -4 -10z"/>
<path d="M1470 1470 c0 -5 5 -10 10 -10 6 0 10 5 10 10 0 6 -4 10 -10 10 -5 0
-10 -4 -10 -10z"/>
<path d="M1510 1470 c0 -5 5 -10 10 -10 6 0 10 5 10 10 0 6 -4 10 -10 10 -5 0
-10 -4 -10 -10z"/>
<path d="M3590 1470 c0 -5 5 -10 10 -10 6 0 10 5 10 10 0 6 -4 10 -10 10 -5 0
-10 -4 -10 -10z"/>
<path d="M3630 1470 c0 -5 5 -10 11 -10 5 0 7 5 4 10 -3 6 -8 10 -11 10 -2 0
-4 -4 -4 -10z"/>
<path d="M3660 1470 c0 -5 5 -10 10 -10 6 0 10 5 10 10 0 6 -4 10 -10 10 -5 0
-10 -4 -10 -10z"/>
<path d="M3700 1470 c0 -5 5 -10 10 -10 6 0 10 5 10 10 0 6 -4 10 -10 10 -5 0
-10 -4 -10 -10z"/>
<path d="M370 1120 c0 -22 5 -40 10 -40 6 0 10 18 10 40 0 22 -4 40 -10 40 -5
0 -10 -18 -10 -40z"/>
<path d="M438 1149 c-6 -17 3 -69 11 -69 7 0 6 69 -2 76 -3 3 -7 0 -9 -7z"/>
<path d="M470 1120 c0 -22 5 -40 10 -40 6 0 10 12 10 27 0 29 15 22 23 -12 4
-16 5 -15 6 5 1 22 -27 60 -44 60 -3 0 -5 -18 -5 -40z"/>
<path d="M670 1151 c0 -5 -9 -11 -21 -14 -29 -8 -22 -51 9 -55 20 -3 22 1 22
37 0 23 -2 41 -5 41 -3 0 -5 -4 -5 -9z m-5 -51 c-5 -8 -11 -8 -17 -2 -6 6 -7
16 -3 22 5 8 11 8 17 2 6 -6 7 -16 3 -22z"/>
<path d="M801 1120 c0 -34 2 -41 10 -30 8 11 12 12 16 3 2 -7 9 -13 14 -13 6
0 6 7 0 18 -7 13 -6 23 1 30 9 9 9 12 1 12 -7 0 -15 -6 -19 -12 -6 -9 -10 -5
-15 12 -5 19 -7 15 -8 -20z"/>
<path d="M984 1147 c-8 -21 -1 -60 11 -64 6 -2 10 12 9 33 -2 40 -11 54 -20
31z"/>
<path d="M1110 1120 c0 -22 5 -40 10 -40 6 0 10 12 10 27 0 29 15 22 23 -12 3
-13 5 -9 6 13 1 22 -4 32 -14 32 -8 0 -15 5 -15 10 0 6 -4 10 -10 10 -5 0 -10
-18 -10 -40z"/>
<path d="M1308 1149 c-6 -18 3 -69 12 -69 4 0 7 16 5 36 -4 39 -11 52 -17 33z"/>
<path d="M1548 1148 c-2 -7 -1 -26 3 -43 6 -28 7 -28 9 -5 1 14 3 33 5 43 4
19 -11 24 -17 5z"/>
<path d="M1880 1120 c0 -22 5 -40 10 -40 6 0 10 18 10 40 0 22 -4 40 -10 40
-5 0 -10 -18 -10 -40z"/>
<path d="M1946 1144 c-9 -25 -7 -64 4 -64 6 0 10 10 11 23 0 12 2 30 4 40 4
21 -11 23 -19 1z"/>
<path d="M2068 1148 c-6 -18 5 -61 17 -65 6 -2 10 11 9 27 -1 34 -18 60 -26
38z"/>
<path d="M2600 1145 c-17 -21 -4 -67 18 -63 22 4 29 48 8 48 -9 0 -16 4 -16
10 0 5 7 6 17 3 11 -4 14 -3 9 5 -10 16 -21 15 -36 -3z m30 -34 c0 -6 -4 -13
-10 -16 -5 -3 -10 1 -10 9 0 9 5 16 10 16 6 0 10 -4 10 -9z"/>
<path d="M2663 1153 c18 -5 19 -15 2 -55 -4 -10 -3 -18 1 -18 5 0 17 18 26 40
l17 40 -32 -1 c-19 -1 -24 -3 -14 -6z"/>
<path d="M2724 1136 c-15 -24 -15 -28 0 -51 10 -15 26 -25 39 -24 l22 0 -22 9
c-50 20 -47 80 4 80 24 0 25 -13 2 -16 -5 -1 -13 -2 -19 -3 -5 0 -10 -10 -10
-21 0 -16 7 -20 30 -20 55 0 52 62 -3 68 -19 2 -30 -4 -43 -22z m72 -33 c-11
-11 -17 4 -9 23 7 18 8 18 11 1 2 -10 1 -21 -2 -24z m-30 0 c-10 -10 -19 5
-10 18 6 11 8 11 12 0 2 -7 1 -15 -2 -18z"/>
<path d="M3080 1120 c0 -22 5 -40 10 -40 6 0 10 18 10 40 0 22 -4 40 -10 40
-5 0 -10 -18 -10 -40z"/>
<path d="M86 1125 c-8 -23 4 -45 25 -45 10 0 19 4 19 10 0 5 -7 7 -15 4 -8 -4
-15 -1 -15 5 0 6 17 12 38 12 21 1 28 3 17 6 -11 3 -24 9 -29 14 -15 14 -33
11 -40 -6z"/>
<path d="M180 1110 c0 -16 5 -30 10 -30 6 0 10 9 10 20 0 28 20 25 21 -2 1
-21 2 -21 6 -3 8 34 23 41 23 12 0 -15 5 -27 11 -27 6 0 9 12 7 27 -3 25 -7
28 -45 31 -42 3 -43 2 -43 -28z"/>
<path d="M284 1129 c-5 -8 -2 -11 7 -7 10 4 15 -1 16 -16 0 -11 -1 -15 -4 -8
-7 17 -23 15 -23 -3 0 -9 10 -15 26 -15 22 0 25 4 22 27 -3 30 -31 43 -44 22z"/>
<path d="M340 1110 c0 -16 5 -30 10 -30 6 0 10 14 10 30 0 17 -4 30 -10 30 -5
0 -10 -13 -10 -30z"/>
<path d="M536 1125 c-8 -23 4 -45 25 -45 10 0 19 4 19 10 0 5 -7 7 -15 4 -8
-4 -15 -1 -15 5 0 6 10 11 21 11 18 0 19 2 9 15 -7 8 -18 15 -25 15 -7 0 -15
-7 -19 -15z"/>
<path d="M703 1125 c4 -8 2 -17 -4 -20 -15 -10 -2 -22 24 -22 20 0 23 4 19 28
-3 21 -10 29 -24 29 -14 0 -18 -5 -15 -15z m27 -19 c0 -3 -4 -8 -10 -11 -5 -3
-10 -1 -10 4 0 6 5 11 10 11 6 0 10 -2 10 -4z"/>
<path d="M761 1106 c1 -24 3 -26 6 -8 2 12 9 22 14 22 5 0 9 4 9 8 0 5 -7 9
-15 9 -10 0 -15 -10 -14 -31z"/>
<path d="M864 1126 c-13 -35 24 -64 42 -34 5 8 2 9 -9 5 -9 -3 -19 -2 -22 3
-4 6 3 10 15 10 13 0 20 5 18 13 -7 18 -37 21 -44 3z"/>
<path d="M925 1129 c-4 -6 1 -17 11 -25 18 -14 18 -14 0 -7 -13 4 -17 3 -12
-5 4 -7 13 -12 21 -12 23 0 28 20 9 36 -18 14 -18 14 0 7 13 -4 17 -3 12 5 -9
15 -33 16 -41 1z"/>
<path d="M1054 1125 c-13 -33 24 -63 41 -34 4 6 0 9 -11 7 -12 -2 -19 3 -19
12 0 9 7 14 19 12 11 -2 15 1 11 7 -9 16 -35 13 -41 -4z"/>
<path d="M1184 1129 c-5 -8 -2 -10 8 -6 17 6 19 -16 3 -30 -4 -4 -5 -2 -1 5 4
6 2 12 -3 12 -6 0 -11 -7 -11 -15 0 -9 10 -15 26 -15 22 0 25 4 22 27 -3 30
-31 43 -44 22z"/>
<path d="M1240 1098 c0 -24 4 -38 8 -32 4 6 15 13 25 17 26 10 18 51 -10 55
-21 3 -23 -1 -23 -40z m32 0 c-9 -9 -12 -7 -12 12 0 19 3 21 12 12 9 -9 9 -15
0 -24z"/>
<path d="M1344 1126 c-13 -35 24 -64 42 -34 5 8 2 9 -9 5 -10 -3 -17 -2 -17 3
0 6 7 10 16 10 20 0 13 24 -9 28 -10 2 -20 -4 -23 -12z"/>
<path d="M1400 1109 c0 -16 5 -29 10 -29 6 0 10 8 10 18 0 10 4 22 10 28 6 6
3 10 -10 11 -16 1 -20 -4 -20 -28z"/>
<path d="M1480 1125 c-11 -13 -11 -19 3 -32 21 -21 49 -9 45 19 -4 28 -30 35
-48 13z m35 -25 c-5 -8 -11 -8 -17 -2 -6 6 -7 16 -3 22 5 8 11 8 17 2 6 -6 7
-16 3 -22z"/>
<path d="M1610 1138 c0 -4 5 -19 10 -34 8 -21 8 -29 -2 -36 -10 -6 -9 -8 2 -8
16 0 47 66 36 77 -3 3 -8 -2 -12 -11 -6 -15 -7 -15 -20 1 -7 10 -14 15 -14 11z"/>
<path d="M1674 1125 c-8 -21 2 -45 19 -45 8 0 20 7 27 15 10 12 10 18 0 30 -7
8 -19 15 -27 15 -7 0 -16 -7 -19 -15z m28 -27 c-9 -9 -12 -7 -12 12 0 19 3 21
12 12 9 -9 9 -15 0 -24z"/>
<path d="M1743 1115 c2 -23 7 -31 25 -33 19 -3 22 1 21 30 -1 28 -2 29 -7 10
-4 -13 -11 -23 -17 -23 -5 0 -13 10 -17 23 -6 19 -7 18 -5 -7z"/>
<path d="M1811 1106 c1 -24 3 -26 6 -8 2 12 9 22 14 22 5 0 9 4 9 8 0 5 -7 9
-15 9 -10 0 -15 -10 -14 -31z"/>
<path d="M1910 1110 c0 -16 5 -30 10 -30 6 0 10 14 10 30 0 17 -4 30 -10 30
-5 0 -10 -13 -10 -30z"/>
<path d="M1976 1125 c-8 -23 4 -45 25 -45 10 0 19 4 19 10 0 5 -7 7 -15 4 -8
-4 -15 -1 -15 5 0 6 10 11 21 11 18 0 19 2 9 15 -7 8 -18 15 -25 15 -7 0 -15
-7 -19 -15z"/>
<path d="M2110 1125 c-11 -13 -11 -19 3 -32 21 -21 49 -9 45 19 -4 28 -30 35
-48 13z m35 -25 c-5 -8 -11 -8 -17 -2 -6 6 -7 16 -3 22 5 8 11 8 17 2 6 -6 7
-16 3 -22z"/>
<path d="M2206 1118 c4 -13 8 -31 8 -40 0 -28 13 -21 25 13 15 44 14 56 -4 33
-13 -17 -14 -17 -15 -1 0 9 -5 17 -11 17 -6 0 -8 -9 -3 -22z"/>
<path d="M2265 1120 c-8 -26 6 -43 31 -38 13 2 19 12 19 28 0 34 -40 41 -50
10z m35 -10 c0 -11 -4 -20 -10 -20 -5 0 -10 9 -10 20 0 11 5 20 10 20 6 0 10
-9 10 -20z"/>
<path d="M2334 1125 c-8 -21 2 -45 19 -45 8 0 20 7 27 15 10 12 10 18 0 30 -7
8 -19 15 -27 15 -7 0 -16 -7 -19 -15z m28 -27 c-9 -9 -12 -7 -12 12 0 19 3 21
12 12 9 -9 9 -15 0 -24z"/>
<path d="M2400 1108 l1 -33 13 30 c14 30 15 29 29 -15 3 -8 6 0 6 18 1 28 -2
32 -24 32 -22 0 -25 -4 -25 -32z"/>
<path d="M2468 1100 c-2 -22 0 -40 4 -40 5 0 8 18 8 40 0 22 -2 40 -4 40 -2 0
-6 -18 -8 -40z"/>
<path d="M2502 1110 c0 -19 2 -27 5 -17 2 9 2 25 0 35 -3 9 -5 1 -5 -18z"/>
<path d="M2531 1108 c1 -21 3 -26 6 -13 8 34 23 41 23 12 0 -15 5 -27 11 -27
6 0 9 12 7 28 -2 19 -9 28 -25 30 -20 3 -23 -1 -22 -30z"/>
<path d="M2827 1127 c-10 -25 5 -67 23 -67 20 0 30 19 30 56 0 19 -5 24 -24
24 -13 0 -26 -6 -29 -13z m33 -18 c0 -5 -4 -9 -10 -9 -5 0 -10 7 -10 16 0 8 5
12 10 9 6 -3 10 -10 10 -16z"/>
<path d="M2890 1111 c0 -17 5 -31 10 -31 6 0 10 12 10 27 0 29 15 22 23 -12 4
-18 5 -18 6 2 2 31 21 39 21 9 0 -14 5 -26 11 -26 6 0 9 12 7 28 -3 24 -7 27
-45 30 -42 3 -43 2 -43 -27z"/>
<path d="M2994 1129 c-5 -8 -2 -10 8 -6 17 6 19 -16 3 -30 -4 -4 -5 -2 -1 5 4
6 2 12 -3 12 -6 0 -11 -7 -11 -15 0 -9 10 -15 26 -15 22 0 25 4 22 27 -3 30
-31 43 -44 22z"/>
<path d="M3050 1110 c0 -16 5 -30 10 -30 6 0 10 14 10 30 0 17 -4 30 -10 30
-5 0 -10 -13 -10 -30z"/>
<path d="M3144 1125 c-13 -34 24 -63 42 -33 5 8 2 9 -9 5 -12 -5 -17 -1 -17
13 0 14 5 18 17 13 11 -4 14 -3 9 5 -10 17 -36 15 -42 -3z"/>
<path d="M3204 1125 c-8 -21 2 -45 19 -45 8 0 20 7 27 15 10 12 10 18 0 30 -7
8 -19 15 -27 15 -7 0 -16 -7 -19 -15z m28 -27 c-9 -9 -12 -7 -12 12 0 19 3 21
12 12 9 -9 9 -15 0 -24z"/>
<path d="M3271 1107 c1 -21 3 -25 6 -12 8 34 23 41 23 12 0 -15 5 -27 10 -27
6 0 10 9 10 20 0 27 18 25 23 -2 3 -17 5 -15 6 8 1 30 -1 32 -39 32 -39 1 -40
0 -39 -31z"/>
<path d="M3110 1090 c0 -5 5 -10 11 -10 5 0 7 5 4 10 -3 6 -8 10 -11 10 -2 0
-4 -4 -4 -10z"/>
<path d="M90 730 c0 -33 4 -60 10 -60 6 0 10 27 10 60 0 33 -4 60 -10 60 -6 0
-10 -27 -10 -60z"/>
<path d="M300 780 c0 -5 7 -10 15 -10 8 0 15 5 15 10 0 6 -7 10 -15 10 -8 0
-15 -4 -15 -10z"/>
<path d="M350 730 c0 -33 4 -60 10 -60 6 0 10 27 10 60 0 33 -4 60 -10 60 -6
0 -10 -27 -10 -60z"/>
<path d="M390 730 c0 -33 4 -60 10 -60 6 0 10 27 10 60 0 33 -4 60 -10 60 -6
0 -10 -27 -10 -60z"/>
<path d="M3006 765 c-22 -85 -24 -95 -15 -95 4 0 12 15 17 32 5 20 16 34 26
36 16 4 18 -1 12 -32 -4 -20 -3 -36 2 -36 11 0 24 69 16 82 -3 5 -14 6 -24 3
-14 -4 -20 0 -22 17 -4 21 -5 20 -12 -7z"/>
<path d="M3100 780 c0 -5 5 -10 10 -10 6 0 10 5 10 10 0 6 -4 10 -10 10 -5 0
-10 -4 -10 -10z"/>
<path d="M3235 744 c-3 -26 -9 -53 -12 -60 -3 -8 -1 -14 4 -14 5 0 13 15 18
32 6 18 18 34 27 36 14 3 16 -3 12 -35 -4 -31 -3 -35 6 -20 6 10 10 30 8 45
-2 21 -8 26 -25 24 -17 -2 -20 1 -16 18 3 11 1 20 -5 20 -5 0 -13 -21 -17 -46z"/>
<path d="M3335 753 c-3 -21 -9 -48 -12 -60 -3 -13 -1 -23 5 -23 5 0 13 21 17
46 3 26 9 53 12 60 3 8 1 14 -5 14 -5 0 -13 -17 -17 -37z"/>
<path d="M4240 769 c0 -15 -5 -19 -19 -14 -26 8 -53 -21 -49 -54 2 -21 9 -26
35 -27 30 -1 31 1 38 43 4 25 9 52 12 59 3 8 0 14 -6 14 -6 0 -11 -9 -11 -21z
m-16 -38 c9 -14 -4 -41 -19 -41 -18 0 -26 15 -19 34 7 17 29 21 38 7z"/>
<path d="M4333 770 c-3 -11 -8 -20 -12 -20 -3 0 -6 -18 -6 -40 -1 -49 10 -52
19 -5 4 19 10 35 14 35 4 0 7 11 7 25 0 30 -15 33 -22 5z"/>
<path d="M738 769 c-7 -22 7 -92 19 -96 8 -3 10 6 6 30 -3 21 -1 37 6 41 8 5
7 12 -3 22 -18 17 -23 18 -28 3z"/>
<path d="M968 769 c-7 -22 7 -92 19 -96 8 -3 10 6 6 30 -3 21 -1 37 6 41 8 5
7 12 -3 22 -18 17 -23 18 -28 3z"/>
<path d="M4044 769 c-12 -20 -17 -99 -6 -99 5 0 9 14 10 31 0 17 5 36 11 43 5
6 6 18 2 25 -7 11 -10 11 -17 0z"/>
<path d="M170 754 c0 -4 5 -24 12 -45 12 -41 38 -54 38 -19 0 11 5 20 10 20 6
0 10 -9 10 -20 0 -36 26 -21 37 22 6 24 10 44 8 46 -9 9 -25 -11 -26 -31 0
-19 -2 -19 -11 6 -12 35 -26 35 -35 0 l-6 -28 -10 28 c-7 23 -27 38 -27 21z"/>
<path d="M300 715 c0 -33 4 -45 15 -45 11 0 15 12 15 45 0 33 -4 45 -15 45
-11 0 -15 -12 -15 -45z"/>
<path d="M480 699 c0 -33 4 -59 10 -59 6 0 10 9 10 20 0 13 5 18 15 14 21 -8
45 14 45 41 0 29 -18 43 -52 43 -27 0 -28 -2 -28 -59z m57 25 c8 -21 -13 -42
-28 -27 -13 13 -5 43 11 43 6 0 13 -7 17 -16z"/>
<path d="M580 714 c0 -24 5 -44 10 -44 6 0 10 14 10 30 0 18 6 33 15 36 23 9
18 22 -10 22 -23 0 -25 -4 -25 -44z"/>
<path d="M650 746 c-28 -35 11 -93 48 -70 35 22 22 84 -18 84 -10 0 -23 -7
-30 -14z m45 -31 c0 -11 -8 -21 -17 -23 -14 -3 -18 3 -18 23 0 20 4 26 18 23
9 -2 17 -12 17 -23z"/>
<path d="M789 739 c-8 -16 -8 -28 0 -45 11 -24 26 -29 55 -18 26 10 18 25 -9
18 -15 -4 -25 -2 -25 5 0 6 11 11 25 11 27 0 33 18 13 38 -19 19 -46 14 -59
-9z m46 -9 c-3 -5 -10 -10 -16 -10 -5 0 -9 5 -9 10 0 6 7 10 16 10 8 0 12 -4
9 -10z"/>
<path d="M893 754 c-7 -3 -13 -21 -13 -39 0 -36 22 -51 54 -39 26 10 19 25 -9
18 -22 -5 -25 -3 -25 21 0 24 3 26 26 21 19 -5 25 -3 22 6 -5 14 -35 20 -55
12z"/>
<path d="M1060 752 c0 -5 7 -26 15 -47 13 -29 13 -40 4 -51 -16 -19 -2 -32 15
-13 15 16 48 110 42 117 -9 9 -26 -10 -26 -29 0 -26 -18 -24 -22 3 -3 21 -28
39 -28 20z"/>
<path d="M1162 748 c-17 -17 -15 -53 3 -68 8 -7 25 -10 40 -6 24 6 30 21 25
56 -4 29 -46 40 -68 18z m48 -33 c0 -25 -23 -35 -35 -15 -10 16 2 40 20 40 9
0 15 -9 15 -25z"/>
<path d="M1250 728 c0 -45 10 -57 48 -56 31 1 32 2 32 45 0 50 -17 59 -22 11
-2 -21 -8 -33 -18 -33 -10 0 -16 12 -18 33 -2 17 -7 32 -13 32 -5 0 -9 -15 -9
-32z"/>
<path d="M1350 714 c0 -24 5 -44 10 -44 6 0 10 14 10 30 0 18 6 33 15 36 23 9
18 22 -10 22 -23 0 -25 -4 -25 -44z"/>
<path d="M3097 743 c-14 -51 -16 -73 -8 -73 5 0 12 18 16 41 7 41 1 65 -8 32z"/>
<path d="M3144 743 c-8 -9 -14 -27 -12 -42 2 -21 8 -25 27 -23 20 2 22 0 11
-13 -8 -10 -21 -13 -34 -9 -16 5 -18 3 -10 -6 15 -15 51 -4 63 18 4 9 11 33
15 52 5 32 4 35 -19 36 -14 1 -32 -5 -41 -13z m40 -12 c9 -14 -4 -41 -19 -41
-18 0 -26 15 -19 34 7 17 29 21 38 7z"/>
<path d="M3378 709 c3 -37 1 -54 -9 -60 -11 -7 -10 -9 3 -9 12 0 28 21 48 60
17 33 27 60 22 60 -5 0 -16 -15 -24 -32 l-16 -33 -7 33 c-11 50 -23 38 -17
-19z"/>
<path d="M3522 744 c-42 -29 -17 -90 26 -64 15 8 14 9 -5 10 -13 0 -23 5 -23
10 0 6 11 10 24 10 30 0 42 16 26 35 -16 19 -20 19 -48 -1z m38 -14 c0 -5 -9
-10 -20 -10 -11 0 -20 5 -20 10 0 6 9 10 20 10 11 0 20 -4 20 -10z"/>
<path d="M3595 718 c-9 -49 1 -62 13 -17 5 21 16 35 27 38 15 3 17 -2 12 -33
-8 -47 9 -47 18 0 7 42 3 48 -35 50 -26 1 -29 -2 -35 -38z"/>
<path d="M3706 744 c-18 -17 -21 -60 -6 -69 12 -8 50 3 50 14 0 5 -11 6 -25 3
-17 -3 -25 0 -25 9 0 27 17 41 39 34 24 -7 29 10 5 19 -21 8 -20 8 -38 -10z"/>
<path d="M3790 753 c0 -5 -4 -25 -9 -45 -5 -21 -5 -38 -1 -38 5 0 11 14 15 31
4 17 14 33 22 36 12 5 12 7 1 14 -16 11 -28 11 -28 2z"/>
<path d="M3853 713 c5 -43 3 -54 -11 -62 -16 -10 -16 -10 0 -11 13 0 78 95 78
115 0 17 -18 0 -29 -27 -14 -32 -14 -33 -18 -8 -9 52 -26 46 -20 -7z"/>
<path d="M3931 715 c-6 -24 -11 -52 -10 -62 0 -15 2 -14 11 5 7 13 17 21 25
18 16 -6 53 28 53 48 0 18 -16 29 -46 32 -18 2 -24 -5 -33 -41z m57 3 c-4 -29
-38 -38 -38 -10 0 22 8 32 27 32 9 0 13 -8 11 -22z"/>
<path d="M4098 748 c-43 -34 -22 -93 25 -70 21 10 21 11 -5 11 -38 1 -36 21 2
21 23 0 30 5 30 19 0 10 -7 22 -16 25 -20 8 -18 8 -36 -6z m32 -18 c0 -5 -7
-10 -15 -10 -8 0 -15 5 -15 10 0 6 7 10 15 10 8 0 15 -4 15 -10z"/>
<path d="M4380 740 c-23 -23 -25 -41 -8 -58 16 -16 33 -15 52 4 21 20 21 60 0
68 -22 8 -22 8 -44 -14z m44 -9 c10 -16 -5 -41 -25 -41 -19 0 -27 29 -12 43 9
10 31 9 37 -2z"/>
<path d="M4466 729 c-3 -17 -6 -39 -6 -48 1 -14 2 -14 9 -1 15 25 23 80 13 80
-5 0 -12 -14 -16 -31z"/>
<path d="M4535 750 c-10 -16 -17 -82 -8 -77 6 4 13 20 16 37 4 18 13 30 22 30
13 0 15 -7 9 -36 -4 -24 -3 -35 3 -31 6 4 13 20 16 37 4 18 13 30 22 30 13 0
15 -7 9 -35 -4 -23 -2 -35 5 -35 6 0 12 11 13 25 4 63 7 60 -50 60 -30 0 -55
-2 -57 -5z"/>
</g>
</svg>
